<?xml version="1.0" encoding="utf-8"?>
<svg viewBox="83.69 36.05 344 384.3" xmlns="http://www.w3.org/2000/svg">
  <path
    d="M 230.19 274.15 L 229.79 275.95 L 229.89 276.55 L 230.09 277.15 L 230.59 277.55 L 231.09 277.85 L 231.49 277.75 L 231.79 277.45 L 231.89 276.75 L 232.09 276.15 L 232.49 275.55 L 233.09 274.95 L 233.69 274.65 L 234.19 274.45 L 234.79 274.55 L 235.09 274.65 L 236.99 276.05 L 237.39 276.45 L 237.79 277.55 L 237.79 278.05 L 237.49 278.55 L 236.89 279.05 L 230.29 282.45 L 229.69 282.95 L 229.19 283.65 L 227.29 287.05 L 227.19 287.45 L 227.39 287.85 L 227.79 288.35 L 228.29 288.95 L 228.69 289.55 L 228.89 290.15 L 228.89 290.65 L 228.59 291.55 L 225.79 296.15 L 225.39 297.15 L 225.19 297.75 L 223.79 300.75 L 223.59 301.75 L 223.59 302.65 L 223.69 303.55 L 223.49 304.65 L 222.89 305.65 L 221.29 307.35 L 219.89 308.55 L 217.79 309.65 L 215.59 310.35 L 214.39 311.55 L 207.09 317.45 L 206.79 318.05 L 206.69 318.45 L 206.99 319.55 L 205.79 320.65 L 202.49 322.45 L 201.39 323.25 L 200.59 324.05 L 200.09 324.85 L 199.79 325.45 L 199.69 325.95 L 199.79 326.45 L 200.09 327.35 L 200.39 327.65 L 200.59 328.05 L 200.59 328.55 L 200.19 329.75 L 200.09 330.35 L 199.99 331.05 L 200.39 333.15 L 199.69 336.65 L 199.49 337.25 L 199.19 337.65 L 198.29 338.05 L 197.29 338.15 L 196.19 336.75 L 195.99 334.85 L 195.99 333.45 L 195.59 332.35 L 193.79 329.45 L 193.19 328.15 L 192.69 326.95 L 192.39 326.65 L 191.89 326.75 L 190.19 327.55 L 189.29 327.75 L 188.09 327.75 L 186.59 327.05 L 185.89 326.35 L 185.59 325.55 L 185.39 324.25 L 185.49 323.15 L 185.49 322.45 L 185.09 321.55 L 184.49 320.95 L 183.79 320.55 L 182.99 320.55 L 181.29 320.65 L 179.29 320.65 L 177.69 320.45 L 176.19 319.85 L 174.19 319.05 L 173.19 318.95 L 172.39 318.85 L 170.19 319.15 L 166.79 319.95 L 164.69 319.85 L 163.99 319.65 L 163.69 319.35 L 163.79 318.85 L 163.99 318.55 L 165.19 318.05 L 165.79 317.65 L 166.09 317.05 L 166.39 315.85 L 167.79 313.25 L 167.99 312.45 L 168.09 311.55 L 167.99 310.65 L 167.69 309.85 L 165.39 307.95 L 158.19 304.15 L 158.19 302.95 L 158.39 302.45 L 158.79 301.65 L 162.09 297.65 L 162.09 297.25 L 161.99 295.55 L 161.59 293.95 L 161.49 292.75 L 161.79 291.25 L 162.29 289.85 L 175.29 276.25 L 176.29 275.55 L 176.79 275.15 L 178.09 273.75 L 178.49 273.15 L 178.59 272.45 L 178.09 271.75 L 177.39 270.25 L 179.39 270.35 L 180.29 270.95 L 180.99 271.65 L 181.99 274.05 L 182.59 274.65 L 183.39 274.85 L 184.89 275.05 L 185.89 275.65 L 186.39 276.25 L 186.99 277.55 L 187.49 278.25 L 192.79 283.75 L 193.59 284.25 L 194.29 284.45 L 194.89 284.05 L 195.09 283.65 L 195.19 282.55 L 195.49 282.15 L 195.99 281.85 L 197.19 281.35 L 197.69 280.95 L 197.99 280.55 L 198.39 279.75 L 198.69 279.45 L 199.09 279.35 L 199.79 279.65 L 200.49 280.15 L 201.39 280.95 L 202.19 281.75 L 203.89 283.95 L 204.99 284.75 L 206.29 286.05 L 206.69 286.65 L 206.89 287.25 L 207.19 288.75 L 207.49 289.35 L 208.39 289.65 L 210.59 289.85 L 211.49 289.85 L 212.69 289.65 L 213.09 289.55 L 214.09 289.75 L 214.29 289.65 L 214.39 289.25 L 214.29 288.35 L 214.29 287.85 L 214.59 287.35 L 215.69 285.95 L 215.89 285.65 L 215.99 285.15 L 215.99 284.75 L 215.79 284.15 L 215.59 283.45 L 215.79 282.95 L 216.19 282.35 L 216.69 281.85 L 217.29 281.55 L 218.09 281.65 L 219.19 281.85 L 219.69 281.85 L 220.29 281.55 L 221.09 280.95 L 222.19 279.95 L 222.79 279.55 L 224.19 279.25 L 224.89 279.05 L 225.79 278.35 L 226.09 277.55 L 226.19 276.85 L 226.49 276.25 L 227.09 275.65 L 229.29 274.15 L 230.19 274.15 Z"
    id="ECU1266" name="Azuay" />
  <path
    d="M 158.19 304.15 L 165.39 307.95 L 167.69 309.85 L 167.99 310.65 L 168.09 311.55 L 167.99 312.45 L 167.79 313.25 L 166.39 315.85 L 166.09 317.05 L 165.79 317.65 L 165.19 318.05 L 163.99 318.55 L 163.79 318.85 L 163.69 319.35 L 163.99 319.65 L 164.69 319.85 L 166.79 319.95 L 170.19 319.15 L 172.39 318.85 L 173.19 318.95 L 174.19 319.05 L 176.19 319.85 L 175.79 322.95 L 175.89 324.05 L 176.19 325.05 L 176.49 325.55 L 176.79 325.85 L 177.69 326.15 L 177.99 326.35 L 178.19 326.75 L 178.19 327.05 L 177.99 327.75 L 175.89 330.15 L 175.59 330.75 L 175.29 331.45 L 175.29 332.85 L 175.29 333.65 L 174.49 336.35 L 174.39 337.15 L 174.49 337.75 L 174.79 338.15 L 175.09 337.95 L 175.59 337.65 L 176.29 336.85 L 176.99 335.95 L 177.39 335.65 L 177.89 335.45 L 178.59 335.55 L 178.99 335.85 L 179.69 336.55 L 180.39 336.95 L 180.79 337.25 L 181.19 337.75 L 181.49 338.45 L 181.59 339.25 L 181.49 340.15 L 181.19 341.05 L 180.89 341.65 L 180.59 342.05 L 179.69 342.95 L 179.39 343.35 L 179.39 343.75 L 179.79 345.35 L 179.79 345.95 L 179.59 346.45 L 179.09 347.15 L 178.69 347.55 L 177.89 348.05 L 176.79 348.25 L 175.69 348.25 L 174.99 348.05 L 173.89 347.65 L 173.09 347.45 L 171.09 347.85 L 170.09 347.65 L 169.39 347.35 L 168.39 346.45 L 168.09 346.05 L 167.59 345.25 L 167.29 345.15 L 166.79 345.15 L 166.19 345.55 L 165.39 345.85 L 163.59 346.85 L 162.89 347.45 L 161.39 349.25 L 160.49 349.65 L 159.29 349.95 L 155.39 350.15 L 154.39 350.05 L 153.19 349.65 L 152.29 349.45 L 151.19 349.45 L 147.79 349.75 L 146.59 350.05 L 143.09 351.75 L 139.29 352.55 L 134.99 352.75 L 134.09 352.85 L 133.69 352.35 L 133.19 352.05 L 132.69 351.45 L 132.49 350.95 L 132.49 349.85 L 132.49 349.25 L 131.89 348.05 L 130.69 346.15 L 130.49 344.95 L 130.59 344.55 L 130.99 343.65 L 130.99 343.05 L 130.59 341.95 L 130.49 340.85 L 130.59 340.35 L 130.99 339.15 L 131.09 338.55 L 130.99 337.95 L 130.69 336.75 L 130.69 336.15 L 130.49 335.55 L 129.39 335.15 L 128.99 334.75 L 129.09 334.25 L 129.49 332.65 L 129.59 331.55 L 129.59 330.95 L 129.49 330.35 L 129.09 329.95 L 128.09 329.55 L 127.79 329.25 L 127.59 327.95 L 127.99 326.75 L 128.09 325.65 L 127.29 325.05 L 124.99 324.45 L 123.69 323.75 L 123.49 322.85 L 123.59 322.25 L 124.39 321.75 L 124.79 321.05 L 125.09 320.25 L 125.69 319.35 L 125.09 321.05 L 124.89 321.45 L 125.19 322.65 L 125.89 322.15 L 126.29 320.25 L 126.89 319.35 L 128.49 321.05 L 129.29 320.65 L 133.59 319.75 L 135.29 320.05 L 135.89 319.75 L 137.19 318.15 L 137.49 317.95 L 139.69 313.25 L 140.39 312.45 L 141.69 312.65 L 141.99 314.05 L 141.49 316.95 L 142.19 316.55 L 142.59 315.95 L 142.89 315.35 L 143.39 314.65 L 143.89 314.25 L 145.79 313.05 L 146.69 312.05 L 147.29 310.75 L 147.59 309.45 L 147.89 307.15 L 148.79 304.95 L 150.09 302.95 L 150.59 303.05 L 155.09 303.25 L 155.69 303.35 L 158.19 304.15 Z"
    id="ECU1267" name="El Oro" />
  <path
    d="M 197.29 338.15 L 196.09 339.65 L 195.69 339.85 L 194.79 340.65 L 194.59 341.05 L 194.59 341.85 L 194.59 342.25 L 194.29 342.65 L 193.69 342.95 L 192.39 342.95 L 192.09 343.15 L 191.89 343.85 L 192.09 344.85 L 192.69 345.95 L 193.49 347.95 L 194.09 348.85 L 195.29 350.15 L 195.99 351.35 L 196.09 351.95 L 196.29 352.95 L 196.19 353.55 L 195.99 354.15 L 195.39 355.45 L 195.09 356.75 L 194.89 358.65 L 194.99 360.05 L 195.29 361.85 L 195.19 362.75 L 194.29 366.05 L 194.19 367.35 L 194.19 368.25 L 194.49 368.95 L 195.09 369.45 L 195.69 369.75 L 196.19 370.15 L 196.39 370.45 L 197.09 371.25 L 197.29 372.25 L 197.29 373.25 L 197.19 374.05 L 197.39 375.55 L 196.89 378.95 L 196.99 379.65 L 197.09 381.15 L 196.99 382.35 L 196.59 384.25 L 196.19 385.15 L 195.39 385.85 L 194.59 387.05 L 194.09 387.95 L 193.69 388.35 L 193.19 388.55 L 192.19 388.85 L 191.89 389.05 L 191.59 389.65 L 191.19 389.95 L 190.59 389.95 L 190.09 389.55 L 189.49 389.05 L 188.99 388.85 L 188.19 388.75 L 187.49 388.45 L 186.89 388.35 L 186.49 388.35 L 185.99 388.75 L 185.69 389.45 L 185.29 389.85 L 184.39 390.55 L 184.09 392.35 L 184.19 392.95 L 184.39 394.05 L 184.29 394.75 L 183.99 395.55 L 183.69 396.25 L 181.79 398.85 L 181.09 399.75 L 179.09 402.95 L 176.49 405.65 L 175.99 405.95 L 175.99 405.85 L 174.39 402.95 L 173.69 399.35 L 171.99 396.85 L 171.99 395.55 L 173.39 393.15 L 173.49 392.25 L 173.19 391.65 L 171.99 390.95 L 170.59 390.95 L 170.19 390.75 L 169.39 390.15 L 168.89 389.95 L 165.89 386.95 L 164.19 386.15 L 162.09 386.45 L 159.99 387.65 L 156.09 388.85 L 153.79 388.55 L 152.39 386.95 L 151.09 385.15 L 149.59 383.75 L 148.09 383.35 L 146.49 383.35 L 144.99 383.15 L 143.39 382.25 L 142.19 381.45 L 140.19 379.25 L 139.19 378.35 L 138.19 378.05 L 136.89 377.75 L 135.99 377.45 L 135.59 376.85 L 135.39 376.85 L 132.99 377.25 L 132.29 377.45 L 131.69 377.75 L 131.19 378.15 L 130.69 378.95 L 130.09 381.05 L 129.69 382.05 L 128.69 383.05 L 124.19 386.55 L 121.69 387.85 L 121.09 388.35 L 119.59 388.45 L 118.59 388.05 L 115.99 386.55 L 115.19 385.85 L 114.59 384.55 L 114.89 383.55 L 122.69 373.05 L 123.39 371.75 L 120.59 372.15 L 118.09 372.85 L 115.99 372.65 L 114.69 370.05 L 114.69 369.45 L 114.99 368.35 L 114.89 367.75 L 114.59 366.95 L 113.59 365.65 L 113.29 364.95 L 113.49 363.75 L 113.99 362.25 L 114.69 360.85 L 115.29 359.85 L 116.19 359.25 L 117.29 358.85 L 118.49 358.85 L 119.69 358.85 L 120.89 359.25 L 123.39 360.65 L 124.59 360.85 L 125.79 360.25 L 126.79 358.95 L 127.69 357.65 L 128.49 356.55 L 133.09 354.45 L 134.09 353.35 L 134.09 352.85 L 134.99 352.75 L 139.29 352.55 L 143.09 351.75 L 146.59 350.05 L 147.79 349.75 L 151.19 349.45 L 152.29 349.45 L 153.19 349.65 L 154.39 350.05 L 155.39 350.15 L 159.29 349.95 L 160.49 349.65 L 161.39 349.25 L 162.89 347.45 L 163.59 346.85 L 165.39 345.85 L 166.19 345.55 L 166.79 345.15 L 167.29 345.15 L 167.59 345.25 L 168.09 346.05 L 168.39 346.45 L 169.39 347.35 L 170.09 347.65 L 171.09 347.85 L 173.09 347.45 L 173.89 347.65 L 174.99 348.05 L 175.69 348.25 L 176.79 348.25 L 177.89 348.05 L 178.69 347.55 L 179.09 347.15 L 179.59 346.45 L 179.79 345.95 L 179.79 345.35 L 179.39 343.75 L 179.39 343.35 L 179.69 342.95 L 180.59 342.05 L 180.89 341.65 L 181.19 341.05 L 181.49 340.15 L 181.59 339.25 L 181.49 338.45 L 181.19 337.75 L 180.79 337.25 L 180.39 336.95 L 179.69 336.55 L 178.99 335.85 L 178.59 335.55 L 177.89 335.45 L 177.39 335.65 L 176.99 335.95 L 176.29 336.85 L 175.59 337.65 L 175.09 337.95 L 174.79 338.15 L 174.49 337.75 L 174.39 337.15 L 174.49 336.35 L 175.29 333.65 L 175.29 332.85 L 175.29 331.45 L 175.59 330.75 L 175.89 330.15 L 177.99 327.75 L 178.19 327.05 L 178.19 326.75 L 177.99 326.35 L 177.69 326.15 L 176.79 325.85 L 176.49 325.55 L 176.19 325.05 L 175.89 324.05 L 175.79 322.95 L 176.19 319.85 L 177.69 320.45 L 179.29 320.65 L 181.29 320.65 L 182.99 320.55 L 183.79 320.55 L 184.49 320.95 L 185.09 321.55 L 185.49 322.45 L 185.49 323.15 L 185.39 324.25 L 185.59 325.55 L 185.89 326.35 L 186.59 327.05 L 188.09 327.75 L 189.29 327.75 L 190.19 327.55 L 191.89 326.75 L 192.39 326.65 L 192.69 326.95 L 193.19 328.15 L 193.79 329.45 L 195.59 332.35 L 195.99 333.45 L 195.99 334.85 L 196.19 336.75 L 197.29 338.15 Z"
    id="ECU1268" name="Loja" />
  <path
    d="M 240.49 331.85 L 240.39 332.05 L 239.29 334.45 L 238.89 335.75 L 238.79 336.85 L 238.79 339.05 L 238.99 340.25 L 238.99 340.85 L 238.59 341.15 L 237.49 341.35 L 237.49 342.45 L 238.19 346.35 L 237.89 347.45 L 236.39 348.85 L 235.99 349.15 L 235.19 349.55 L 234.89 349.75 L 234.29 350.95 L 233.79 352.05 L 233.19 356.55 L 233.19 356.95 L 232.99 357.15 L 232.19 357.65 L 231.39 357.85 L 230.69 357.95 L 229.99 358.05 L 229.39 358.75 L 229.09 359.65 L 229.19 363.25 L 228.49 365.85 L 224.89 373.55 L 224.39 376.15 L 223.79 377.25 L 222.69 378.15 L 222.29 379.45 L 222.29 381.65 L 222.79 383.95 L 223.49 385.05 L 224.89 385.95 L 224.79 386.85 L 223.89 388.05 L 222.99 389.35 L 222.89 390.45 L 222.89 391.65 L 222.79 392.85 L 222.29 393.75 L 219.99 395.25 L 214.59 397.45 L 212.09 398.85 L 209.39 401.35 L 208.29 402.95 L 207.59 404.55 L 207.69 406.25 L 208.99 408.85 L 209.29 410.35 L 208.69 411.55 L 207.29 411.85 L 205.69 411.85 L 204.49 412.15 L 203.89 413.15 L 203.19 416.05 L 202.79 417.25 L 201.29 418.95 L 199.59 420.35 L 198.49 419.25 L 197.79 418.75 L 197.19 418.45 L 196.59 418.45 L 195.59 418.65 L 194.99 418.65 L 193.99 418.45 L 191.99 417.75 L 190.89 417.55 L 186.69 417.75 L 185.29 417.35 L 184.49 416.35 L 183.89 415.05 L 183.09 413.95 L 182.59 413.55 L 181.39 413.15 L 180.89 412.75 L 180.59 412.25 L 180.19 411.05 L 179.89 410.55 L 178.79 409.75 L 177.59 409.15 L 176.59 408.35 L 176.19 407.05 L 175.99 405.95 L 176.49 405.65 L 179.09 402.95 L 181.09 399.75 L 181.79 398.85 L 183.69 396.25 L 183.99 395.55 L 184.29 394.75 L 184.39 394.05 L 184.19 392.95 L 184.09 392.35 L 184.39 390.55 L 185.29 389.85 L 185.69 389.45 L 185.99 388.75 L 186.49 388.35 L 186.89 388.35 L 187.49 388.45 L 188.19 388.75 L 188.99 388.85 L 189.49 389.05 L 190.09 389.55 L 190.59 389.95 L 191.19 389.95 L 191.59 389.65 L 191.89 389.05 L 192.19 388.85 L 193.19 388.55 L 193.69 388.35 L 194.09 387.95 L 194.59 387.05 L 195.39 385.85 L 196.19 385.15 L 196.59 384.25 L 196.99 382.35 L 197.09 381.15 L 196.99 379.65 L 196.89 378.95 L 197.39 375.55 L 197.19 374.05 L 197.29 373.25 L 197.29 372.25 L 197.09 371.25 L 196.39 370.45 L 196.19 370.15 L 195.69 369.75 L 195.09 369.45 L 194.49 368.95 L 194.19 368.25 L 194.19 367.35 L 194.29 366.05 L 195.19 362.75 L 195.29 361.85 L 194.99 360.05 L 194.89 358.65 L 195.09 356.75 L 195.39 355.45 L 195.99 354.15 L 196.19 353.55 L 196.29 352.95 L 196.09 351.95 L 195.99 351.35 L 195.29 350.15 L 194.09 348.85 L 193.49 347.95 L 192.69 345.95 L 192.09 344.85 L 191.89 343.85 L 192.09 343.15 L 192.39 342.95 L 193.69 342.95 L 194.29 342.65 L 194.59 342.25 L 194.59 341.85 L 194.59 341.05 L 194.79 340.65 L 195.69 339.85 L 196.09 339.65 L 197.29 338.15 L 198.29 338.05 L 199.19 337.65 L 199.49 337.25 L 199.69 336.65 L 200.39 333.15 L 199.99 331.05 L 200.09 330.35 L 200.19 329.75 L 200.59 328.55 L 200.59 328.05 L 200.39 327.65 L 200.09 327.35 L 199.79 326.45 L 199.69 325.95 L 199.79 325.45 L 200.09 324.85 L 200.59 324.05 L 201.39 323.25 L 202.49 322.45 L 205.79 320.65 L 206.99 319.55 L 211.89 323.05 L 212.29 323.45 L 212.49 323.95 L 212.49 324.25 L 212.39 324.65 L 211.09 325.85 L 210.89 326.25 L 210.89 327.05 L 211.09 327.85 L 211.19 328.95 L 211.49 329.95 L 211.99 330.65 L 212.49 331.05 L 212.69 331.45 L 212.89 332.25 L 213.29 332.55 L 213.89 332.85 L 215.59 333.15 L 218.09 333.85 L 220.09 334.05 L 220.69 334.25 L 221.69 334.75 L 222.09 334.85 L 222.49 334.55 L 222.79 334.15 L 223.39 333.05 L 223.89 332.55 L 224.49 332.45 L 225.19 332.35 L 227.49 332.55 L 228.69 332.55 L 232.99 331.75 L 240.49 331.85 Z"
    id="ECU1269" name="Zamora Chinchipe" />
  <path
    d="M 211.29 191.65 L 209.99 194.05 L 209.89 194.85 L 209.79 197.05 L 209.49 198.05 L 208.69 199.75 L 208.29 200.85 L 207.69 203.85 L 207.89 204.75 L 209.29 206.85 L 209.99 207.55 L 210.49 208.45 L 210.39 209.65 L 210.59 210.25 L 210.89 210.95 L 211.79 212.45 L 212.09 213.25 L 212.09 214.25 L 211.89 215.65 L 211.79 217.05 L 211.89 219.05 L 211.69 220.65 L 211.09 222.15 L 209.89 223.95 L 207.79 225.85 L 206.99 226.05 L 204.79 226.35 L 204.09 226.75 L 203.59 227.15 L 203.29 227.65 L 203.09 228.25 L 203.09 229.25 L 202.89 231.95 L 202.99 233.85 L 203.39 235.15 L 203.39 235.75 L 201.89 243.45 L 201.89 244.15 L 202.09 244.75 L 202.39 245.25 L 202.49 245.85 L 202.39 246.55 L 202.09 247.25 L 200.99 248.95 L 198.79 251.05 L 195.59 252.75 L 195.79 250.35 L 195.49 249.85 L 195.09 249.35 L 194.49 249.35 L 193.89 249.65 L 193.59 250.05 L 193.19 250.25 L 192.49 250.35 L 191.79 250.25 L 189.39 249.85 L 190.29 247.95 L 190.69 245.95 L 191.19 245.05 L 191.19 244.55 L 190.79 243.65 L 188.69 240.35 L 186.79 237.85 L 186.79 237.35 L 186.99 236.85 L 187.69 236.35 L 187.99 236.05 L 188.99 232.05 L 189.59 230.95 L 189.69 230.05 L 189.49 229.45 L 188.99 228.75 L 188.59 227.95 L 188.39 227.25 L 188.29 226.55 L 188.59 225.45 L 188.49 224.95 L 186.69 222.25 L 185.99 220.95 L 185.59 220.35 L 185.19 220.15 L 184.79 220.25 L 184.49 220.05 L 184.29 219.75 L 183.09 219.35 L 182.89 219.05 L 183.09 218.65 L 183.89 218.15 L 184.29 217.75 L 185.99 215.95 L 186.29 215.85 L 186.99 216.15 L 187.29 216.15 L 187.49 215.95 L 188.09 214.95 L 188.39 214.05 L 188.49 213.25 L 188.19 212.55 L 187.69 212.05 L 185.79 210.75 L 184.99 209.95 L 184.39 208.95 L 184.19 207.65 L 184.29 203.05 L 184.39 202.45 L 184.69 202.05 L 185.19 202.05 L 185.89 201.65 L 186.09 201.25 L 185.99 200.95 L 184.29 199.75 L 183.69 198.65 L 183.29 198.35 L 182.99 198.45 L 182.59 198.75 L 181.79 199.85 L 181.39 200.25 L 180.89 200.45 L 180.49 200.35 L 180.29 200.05 L 180.39 199.25 L 181.29 198.25 L 182.79 195.95 L 183.89 194.45 L 186.69 193.15 L 189.39 192.95 L 193.79 190.75 L 195.19 190.35 L 196.89 190.15 L 197.69 190.15 L 198.49 190.25 L 198.89 190.65 L 199.59 191.45 L 201.29 192.65 L 202.49 193.15 L 203.89 193.55 L 205.19 193.45 L 206.29 193.15 L 207.89 191.75 L 208.89 191.25 L 209.59 191.15 L 211.29 191.65 Z"
    id="ECU1277" name="Bolivar" />
  <path
    d="M 228.39 259.25 L 228.39 259.85 L 229.19 260.35 L 232.89 261.95 L 233.79 262.65 L 234.19 263.35 L 233.99 264.55 L 234.09 267.95 L 233.79 269.05 L 233.79 270.25 L 233.69 270.75 L 233.49 271.25 L 231.99 273.45 L 231.39 274.15 L 230.99 274.45 L 230.59 274.45 L 230.19 274.15 L 229.29 274.15 L 227.09 275.65 L 226.49 276.25 L 226.19 276.85 L 226.09 277.55 L 225.79 278.35 L 224.89 279.05 L 224.19 279.25 L 222.79 279.55 L 222.19 279.95 L 221.09 280.95 L 220.29 281.55 L 219.69 281.85 L 219.19 281.85 L 218.09 281.65 L 217.29 281.55 L 216.69 281.85 L 216.19 282.35 L 215.79 282.95 L 215.59 283.45 L 215.79 284.15 L 215.99 284.75 L 215.99 285.15 L 215.89 285.65 L 215.69 285.95 L 214.59 287.35 L 214.29 287.85 L 214.29 288.35 L 214.39 289.25 L 214.29 289.65 L 214.09 289.75 L 213.09 289.55 L 212.69 289.65 L 211.49 289.85 L 210.59 289.85 L 208.39 289.65 L 207.49 289.35 L 207.19 288.75 L 206.89 287.25 L 206.69 286.65 L 206.29 286.05 L 204.99 284.75 L 203.89 283.95 L 202.19 281.75 L 201.39 280.95 L 200.49 280.15 L 199.79 279.65 L 199.09 279.35 L 198.69 279.45 L 198.39 279.75 L 197.99 280.55 L 197.69 280.95 L 197.19 281.35 L 195.99 281.85 L 195.49 282.15 L 195.19 282.55 L 195.09 283.65 L 194.89 284.05 L 194.29 284.45 L 193.59 284.25 L 192.79 283.75 L 187.49 278.25 L 186.99 277.55 L 186.39 276.25 L 185.89 275.65 L 184.89 275.05 L 183.39 274.85 L 182.59 274.65 L 181.99 274.05 L 180.99 271.65 L 180.29 270.95 L 179.39 270.35 L 177.39 270.25 L 175.69 270.75 L 174.29 271.45 L 173.39 271.35 L 172.89 270.95 L 172.79 270.15 L 176.09 267.05 L 178.09 265.75 L 178.19 265.45 L 177.69 264.55 L 177.79 264.05 L 178.09 263.55 L 178.09 262.15 L 178.59 261.35 L 179.19 260.75 L 180.89 259.45 L 181.69 259.05 L 182.39 258.75 L 189.39 257.45 L 190.59 257.15 L 191.99 256.55 L 193.29 255.75 L 194.19 255.15 L 195.09 254.05 L 195.59 252.75 L 195.89 254.35 L 196.39 255.25 L 196.79 255.45 L 197.39 255.85 L 197.69 256.05 L 197.99 256.95 L 198.29 257.45 L 199.29 258.05 L 199.79 258.55 L 201.69 261.25 L 202.59 262.05 L 203.39 262.65 L 204.69 263.15 L 205.89 263.95 L 206.59 264.35 L 207.99 264.45 L 209.69 264.35 L 211.59 263.85 L 213.59 262.85 L 214.59 261.95 L 215.99 260.55 L 217.49 260.05 L 219.69 259.55 L 227.19 258.65 L 228.39 259.25 Z"
    id="ECU1278" name="Cañar" />
  <path
    d="M 239.19 162.25 L 238.69 163.75 L 238.79 164.45 L 239.39 166.55 L 239.69 168.65 L 239.79 169.95 L 239.59 171.05 L 238.89 172.35 L 238.29 173.25 L 237.99 174.05 L 237.89 174.65 L 237.89 175.55 L 237.69 176.05 L 237.49 176.45 L 236.69 176.95 L 236.59 177.35 L 236.79 177.75 L 237.19 178.05 L 238.59 178.35 L 239.59 178.85 L 237.89 180.35 L 237.59 180.85 L 237.29 181.45 L 237.09 182.05 L 236.99 182.65 L 236.99 183.75 L 236.29 184.95 L 235.79 185.55 L 234.99 185.85 L 233.59 185.95 L 232.79 185.75 L 232.29 185.35 L 231.99 185.05 L 231.19 184.55 L 230.49 184.55 L 229.89 184.65 L 229.29 185.25 L 229.29 186.35 L 229.09 186.85 L 228.59 187.15 L 228.09 187.35 L 226.49 187.45 L 225.89 187.65 L 224.49 188.85 L 223.49 189.35 L 222.59 189.55 L 221.09 189.45 L 218.29 188.85 L 217.19 188.95 L 216.09 189.15 L 214.59 189.65 L 212.99 191.05 L 211.29 191.65 L 209.59 191.15 L 208.89 191.25 L 207.89 191.75 L 206.29 193.15 L 205.19 193.45 L 203.89 193.55 L 202.49 193.15 L 201.29 192.65 L 199.59 191.45 L 198.89 190.65 L 198.49 190.25 L 197.69 190.15 L 196.89 190.15 L 195.19 190.35 L 193.79 190.75 L 189.39 192.95 L 186.69 193.15 L 186.29 191.25 L 184.69 189.15 L 184.19 188.25 L 184.19 186.85 L 184.29 185.35 L 185.19 181.15 L 185.09 180.15 L 185.09 179.05 L 185.29 178.05 L 186.09 175.95 L 186.59 175.05 L 187.19 174.45 L 187.89 173.95 L 188.59 173.35 L 190.19 170.35 L 190.69 169.85 L 191.19 169.35 L 192.19 168.75 L 192.59 168.25 L 193.49 166.65 L 197.59 157.05 L 198.19 154.35 L 199.09 155.75 L 199.69 156.15 L 200.09 156.35 L 200.59 156.35 L 201.19 156.05 L 201.69 155.15 L 201.89 154.35 L 202.19 154.05 L 202.59 153.75 L 203.69 153.35 L 203.89 153.15 L 203.89 152.85 L 203.59 151.85 L 203.29 151.45 L 202.79 151.05 L 201.79 150.65 L 201.39 150.05 L 202.19 148.55 L 202.99 146.75 L 203.49 146.15 L 204.69 145.55 L 205.19 145.05 L 205.39 144.15 L 205.89 143.35 L 206.39 142.95 L 207.09 142.85 L 207.69 142.15 L 207.99 142.05 L 208.49 142.45 L 208.69 142.85 L 208.69 143.55 L 208.89 143.95 L 211.09 146.85 L 211.99 148.45 L 212.69 149.55 L 212.89 150.05 L 213.29 151.55 L 213.49 152.25 L 214.29 152.95 L 218.09 155.55 L 219.09 156.95 L 219.69 158.25 L 219.79 159.25 L 219.99 159.85 L 220.39 160.35 L 220.79 160.55 L 221.29 160.45 L 222.89 159.25 L 223.39 159.05 L 223.89 158.85 L 224.69 158.45 L 225.39 157.95 L 226.09 157.65 L 226.59 157.55 L 227.39 158.35 L 227.79 158.55 L 228.39 158.35 L 229.99 157.45 L 230.59 157.35 L 231.49 157.35 L 232.89 157.55 L 233.69 157.45 L 235.39 158.15 L 239.19 162.25 Z"
    id="ECU1279" name="Cotopaxi" />
  <path
    d="M 137.09 300.15 L 136.09 301.55 L 133.99 301.25 L 132.79 301.95 L 131.79 302.25 L 130.29 302.15 L 128.99 301.85 L 128.09 301.35 L 127.69 300.05 L 128.09 297.95 L 128.29 290.75 L 128.49 289.95 L 130.49 286.25 L 131.39 283.85 L 132.19 283.25 L 135.89 282.15 L 139.09 280.55 L 140.39 280.15 L 142.99 280.25 L 147.09 282.75 L 149.69 283.45 L 149.39 284.25 L 148.89 285.05 L 148.19 285.55 L 145.19 286.85 L 144.99 287.45 L 144.19 288.25 L 143.99 288.55 L 143.59 289.45 L 143.19 290.35 L 142.69 290.85 L 142.49 290.85 L 141.89 291.95 L 141.19 293.45 L 140.39 294.75 L 140.09 295.75 L 139.09 296.15 L 138.29 297.05 L 138.29 298.45 L 137.39 299.25 L 137.09 300.15 Z M 153.79 278.55 L 152.39 279.45 L 151.19 279.35 L 150.89 278.05 L 151.79 275.75 L 152.99 272.45 L 154.59 269.55 L 155.29 271.15 L 156.69 271.65 L 157.39 272.95 L 156.19 274.85 L 154.09 275.95 L 153.79 278.55 Z M 189.39 249.85 L 191.79 250.25 L 192.49 250.35 L 193.19 250.25 L 193.59 250.05 L 193.89 249.65 L 194.49 249.35 L 195.09 249.35 L 195.49 249.85 L 195.79 250.35 L 195.59 252.75 L 195.09 254.05 L 194.19 255.15 L 193.29 255.75 L 191.99 256.55 L 190.59 257.15 L 189.39 257.45 L 182.39 258.75 L 181.69 259.05 L 180.89 259.45 L 179.19 260.75 L 178.59 261.35 L 178.09 262.15 L 178.09 263.55 L 177.79 264.05 L 177.69 264.55 L 178.19 265.45 L 178.09 265.75 L 176.09 267.05 L 172.79 270.15 L 172.89 270.95 L 173.39 271.35 L 174.29 271.45 L 175.69 270.75 L 177.39 270.25 L 178.09 271.75 L 178.59 272.45 L 178.49 273.15 L 178.09 273.75 L 176.79 275.15 L 176.29 275.55 L 175.29 276.25 L 162.29 289.85 L 161.79 291.25 L 161.49 292.75 L 161.59 293.95 L 161.99 295.55 L 162.09 297.25 L 162.09 297.65 L 158.79 301.65 L 158.39 302.45 L 158.19 302.95 L 158.19 304.15 L 155.69 303.35 L 155.09 303.25 L 150.59 303.05 L 150.09 302.95 L 150.79 301.75 L 151.39 300.55 L 150.79 299.55 L 150.99 298.15 L 151.79 295.85 L 151.89 294.85 L 153.69 288.75 L 154.99 286.45 L 155.09 286.05 L 155.69 284.85 L 155.89 283.45 L 157.19 279.95 L 157.89 278.95 L 159.69 277.05 L 160.19 276.05 L 160.29 274.55 L 159.89 271.95 L 159.09 269.85 L 158.89 269.55 L 157.59 269.65 L 156.89 269.55 L 156.39 269.35 L 155.69 268.25 L 154.59 265.05 L 153.79 263.85 L 153.49 263.15 L 153.29 262.25 L 153.39 258.75 L 152.99 256.05 L 152.99 255.25 L 153.29 253.95 L 153.39 253.15 L 153.09 252.55 L 152.29 251.55 L 152.09 251.35 L 151.99 250.95 L 151.69 250.25 L 151.79 249.55 L 152.09 248.85 L 152.39 248.35 L 152.59 247.85 L 152.09 247.05 L 152.99 246.15 L 153.99 245.85 L 154.69 245.35 L 154.99 243.95 L 155.49 243.35 L 156.39 242.85 L 157.39 242.25 L 157.79 240.95 L 154.29 242.95 L 153.89 243.25 L 153.79 243.75 L 153.69 244.85 L 153.29 244.95 L 151.39 245.15 L 150.89 245.65 L 150.79 246.05 L 150.29 247.55 L 149.79 249.95 L 149.69 251.65 L 150.09 253.35 L 151.89 256.55 L 152.09 258.35 L 151.09 269.95 L 150.49 272.35 L 150.09 273.05 L 148.49 274.85 L 147.89 275.25 L 146.89 275.55 L 144.89 276.75 L 143.99 276.85 L 143.39 276.55 L 143.09 275.75 L 142.59 275.65 L 141.29 275.75 L 140.89 275.65 L 140.09 275.05 L 139.79 274.05 L 140.59 273.15 L 142.39 271.95 L 142.89 270.65 L 143.19 269.75 L 143.79 269.25 L 145.39 269.05 L 145.79 269.35 L 146.09 269.85 L 146.59 270.25 L 147.29 270.35 L 147.79 269.95 L 148.09 269.45 L 147.99 268.85 L 147.69 268.25 L 147.39 269.45 L 146.59 269.25 L 145.19 267.85 L 143.89 268.05 L 142.69 268.65 L 141.89 268.85 L 141.49 268.05 L 141.79 266.75 L 142.89 264.15 L 143.19 262.75 L 143.39 262.05 L 143.89 261.75 L 144.59 261.65 L 145.19 261.35 L 145.69 260.85 L 146.89 258.95 L 146.29 259.05 L 145.99 259.25 L 145.39 259.95 L 144.89 260.15 L 143.69 260.05 L 143.19 260.05 L 142.49 260.55 L 141.99 261.25 L 139.39 267.95 L 135.29 273.65 L 133.49 275.65 L 131.59 276.45 L 131.09 277.25 L 130.69 277.75 L 130.09 278.15 L 129.59 278.15 L 129.29 277.85 L 128.69 277.05 L 127.89 276.75 L 127.29 277.15 L 127.09 278.15 L 127.29 279.35 L 127.49 279.55 L 129.09 281.15 L 129.29 281.65 L 129.39 282.35 L 129.29 283.65 L 128.69 284.15 L 127.39 283.95 L 124.89 282.95 L 122.29 280.85 L 121.49 280.35 L 120.69 279.65 L 120.29 279.35 L 119.99 279.25 L 118.89 279.05 L 118.39 278.95 L 116.09 277.45 L 111.59 272.25 L 115.89 268.15 L 119.49 265.45 L 124.59 264.25 L 127.49 262.55 L 130.09 258.55 L 131.09 252.45 L 131.19 247.25 L 128.89 243.65 L 126.79 241.65 L 123.29 239.55 L 118.59 238.35 L 115.49 236.55 L 113.79 233.75 L 113.19 231.15 L 115.69 231.25 L 117.39 231.05 L 117.89 230.85 L 118.19 230.55 L 118.39 229.75 L 118.49 228.75 L 118.59 228.15 L 119.09 227.45 L 119.59 226.85 L 119.99 226.25 L 120.39 225.55 L 120.79 224.95 L 121.49 224.45 L 122.09 224.15 L 122.89 223.75 L 123.29 223.45 L 123.89 222.45 L 124.29 221.95 L 124.79 221.75 L 125.29 222.05 L 126.09 222.65 L 126.49 222.55 L 126.79 222.15 L 127.59 221.65 L 129.89 221.85 L 130.79 221.65 L 130.99 221.05 L 130.49 219.25 L 130.39 218.75 L 130.49 217.95 L 130.29 217.75 L 129.29 217.45 L 128.79 217.15 L 127.99 216.55 L 127.39 215.75 L 126.99 215.25 L 127.09 214.85 L 130.69 214.35 L 132.69 213.05 L 132.99 212.45 L 132.99 212.05 L 132.29 211.05 L 132.09 210.45 L 131.89 209.65 L 131.89 208.95 L 132.19 207.45 L 132.49 206.75 L 132.89 206.25 L 133.49 205.95 L 134.49 205.35 L 135.79 205.05 L 136.09 204.75 L 136.19 204.35 L 135.99 202.95 L 136.09 201.85 L 136.49 200.95 L 137.19 200.45 L 138.49 199.85 L 140.79 197.95 L 141.29 197.25 L 142.49 194.05 L 142.99 192.15 L 143.49 190.95 L 143.89 189.65 L 144.29 188.75 L 144.89 188.15 L 145.29 187.85 L 145.49 188.05 L 145.29 188.95 L 145.39 189.25 L 145.69 189.35 L 146.69 189.35 L 147.59 189.55 L 148.69 189.25 L 149.59 188.75 L 152.59 186.35 L 153.29 185.55 L 154.29 183.95 L 155.09 183.05 L 155.59 182.45 L 155.89 181.85 L 156.09 180.95 L 156.09 180.05 L 156.39 179.75 L 157.29 179.15 L 157.59 178.55 L 157.89 177.85 L 158.19 177.15 L 160.39 173.95 L 160.99 173.45 L 161.69 173.05 L 162.69 172.75 L 166.49 172.15 L 168.49 171.65 L 170.59 171.35 L 171.49 171.35 L 172.29 171.85 L 172.59 172.75 L 172.29 174.65 L 171.39 177.25 L 171.39 177.85 L 171.69 178.65 L 171.29 179.15 L 170.39 179.75 L 169.99 180.25 L 169.49 181.45 L 169.09 183.45 L 168.79 184.05 L 168.39 184.45 L 167.89 184.75 L 167.39 184.75 L 166.79 184.95 L 166.39 185.35 L 166.19 185.65 L 165.59 186.35 L 164.99 187.25 L 164.59 187.65 L 163.69 187.75 L 163.29 187.85 L 163.09 188.25 L 162.89 188.95 L 162.59 189.75 L 162.19 189.95 L 161.59 190.15 L 161.29 190.25 L 161.19 191.25 L 160.59 191.65 L 159.99 191.75 L 159.49 192.05 L 159.29 192.35 L 159.19 192.75 L 159.19 193.85 L 158.89 195.05 L 155.59 201.35 L 155.09 202.05 L 153.99 203.15 L 153.29 204.25 L 152.99 204.85 L 151.99 207.55 L 151.89 208.25 L 151.59 211.95 L 151.69 212.65 L 152.49 215.25 L 152.39 215.65 L 151.99 216.65 L 151.99 217.35 L 152.09 218.25 L 152.29 218.85 L 152.49 219.25 L 157.39 221.75 L 158.19 222.55 L 158.89 223.75 L 159.29 225.05 L 159.89 225.95 L 161.39 227.95 L 161.79 228.75 L 162.59 230.75 L 163.89 233.25 L 164.29 234.55 L 164.79 235.05 L 166.09 235.35 L 168.09 235.05 L 171.19 233.85 L 172.19 233.75 L 173.49 233.95 L 174.69 234.55 L 177.39 236.35 L 178.69 237.05 L 179.39 237.45 L 181.19 238.85 L 181.89 239.65 L 186.39 247.05 L 189.39 249.85 Z"
    id="ECU1280" name="Guayas" />
  <path
    d="M 198.19 154.35 L 197.59 157.05 L 193.49 166.65 L 192.59 168.25 L 192.19 168.75 L 191.19 169.35 L 190.69 169.85 L 190.19 170.35 L 188.59 173.35 L 187.89 173.95 L 187.19 174.45 L 186.59 175.05 L 186.09 175.95 L 185.29 178.05 L 185.09 179.05 L 185.09 180.15 L 185.19 181.15 L 184.29 185.35 L 184.19 186.85 L 184.19 188.25 L 184.69 189.15 L 186.29 191.25 L 186.69 193.15 L 183.89 194.45 L 182.79 195.95 L 181.29 198.25 L 180.39 199.25 L 180.29 200.05 L 180.49 200.35 L 180.89 200.45 L 181.39 200.25 L 181.79 199.85 L 182.59 198.75 L 182.99 198.45 L 183.29 198.35 L 183.69 198.65 L 184.29 199.75 L 185.99 200.95 L 186.09 201.25 L 185.89 201.65 L 185.19 202.05 L 184.69 202.05 L 184.39 202.45 L 184.29 203.05 L 184.19 207.65 L 184.39 208.95 L 184.99 209.95 L 185.79 210.75 L 187.69 212.05 L 188.19 212.55 L 188.49 213.25 L 188.39 214.05 L 188.09 214.95 L 187.49 215.95 L 187.29 216.15 L 186.99 216.15 L 186.29 215.85 L 185.99 215.95 L 184.29 217.75 L 183.89 218.15 L 183.09 218.65 L 182.89 219.05 L 183.09 219.35 L 184.29 219.75 L 184.49 220.05 L 184.79 220.25 L 185.19 220.15 L 185.59 220.35 L 185.99 220.95 L 186.69 222.25 L 188.49 224.95 L 188.59 225.45 L 188.29 226.55 L 188.39 227.25 L 188.59 227.95 L 188.99 228.75 L 189.49 229.45 L 189.69 230.05 L 189.59 230.95 L 188.99 232.05 L 187.99 236.05 L 187.69 236.35 L 186.99 236.85 L 186.79 237.35 L 186.79 237.85 L 188.69 240.35 L 190.79 243.65 L 191.19 244.55 L 191.19 245.05 L 190.69 245.95 L 190.29 247.95 L 189.39 249.85 L 186.39 247.05 L 181.89 239.65 L 181.19 238.85 L 179.39 237.45 L 178.69 237.05 L 177.39 236.35 L 174.69 234.55 L 173.49 233.95 L 172.19 233.75 L 171.19 233.85 L 168.09 235.05 L 166.09 235.35 L 164.79 235.05 L 164.29 234.55 L 163.89 233.25 L 162.59 230.75 L 161.79 228.75 L 161.39 227.95 L 159.89 225.95 L 159.29 225.05 L 158.89 223.75 L 158.19 222.55 L 157.39 221.75 L 152.49 219.25 L 152.29 218.85 L 152.09 218.25 L 151.99 217.35 L 151.99 216.65 L 152.39 215.65 L 152.49 215.25 L 151.69 212.65 L 151.59 211.95 L 151.89 208.25 L 151.99 207.55 L 152.99 204.85 L 153.29 204.25 L 153.99 203.15 L 155.09 202.05 L 155.59 201.35 L 158.89 195.05 L 159.19 193.85 L 159.19 192.75 L 159.29 192.35 L 159.49 192.05 L 159.99 191.75 L 160.59 191.65 L 161.19 191.25 L 161.29 190.25 L 161.59 190.15 L 162.19 189.95 L 162.59 189.75 L 162.89 188.95 L 163.09 188.25 L 163.29 187.85 L 163.69 187.75 L 164.59 187.65 L 164.99 187.25 L 165.59 186.35 L 166.19 185.65 L 166.39 185.35 L 166.79 184.95 L 167.39 184.75 L 167.89 184.75 L 168.39 184.45 L 168.79 184.05 L 169.09 183.45 L 169.49 181.45 L 169.99 180.25 L 170.39 179.75 L 171.29 179.15 L 171.69 178.65 L 171.39 177.85 L 171.39 177.25 L 172.29 174.65 L 172.59 172.75 L 172.29 171.85 L 171.49 171.35 L 170.59 171.35 L 168.49 171.65 L 166.49 172.15 L 167.69 169.65 L 168.49 165.55 L 168.99 164.55 L 169.59 163.85 L 170.09 163.55 L 170.69 163.35 L 171.29 162.95 L 171.49 162.65 L 172.19 160.55 L 173.49 157.85 L 173.99 156.65 L 174.79 153.85 L 176.59 153.95 L 177.89 154.15 L 181.09 153.95 L 182.49 154.25 L 182.99 154.55 L 182.39 155.35 L 182.09 155.85 L 182.29 156.65 L 182.59 157.65 L 182.69 158.55 L 182.49 159.25 L 182.09 160.05 L 181.89 160.55 L 182.19 161.65 L 182.49 162.15 L 183.09 162.55 L 183.79 162.85 L 184.59 162.95 L 185.29 162.95 L 186.09 162.75 L 186.69 162.25 L 187.39 161.55 L 188.19 160.75 L 188.89 160.25 L 190.49 159.45 L 191.19 158.95 L 195.59 154.55 L 196.49 154.05 L 197.09 153.95 L 198.19 154.35 Z"
    id="ECU1281" name="Los Rios" />
  <path
    d="M 167.99 122.35 L 167.49 122.85 L 167.39 123.25 L 167.29 123.95 L 167.49 125.15 L 167.79 125.75 L 168.29 126.15 L 169.09 126.45 L 169.59 126.95 L 170.29 127.45 L 170.79 127.85 L 172.29 129.65 L 173.79 131.15 L 174.19 131.35 L 176.29 131.95 L 176.69 132.05 L 178.09 131.95 L 178.59 132.15 L 178.89 132.65 L 178.79 133.65 L 179.19 144.35 L 178.99 145.25 L 178.59 146.15 L 176.69 149.05 L 176.59 150.35 L 176.49 150.85 L 175.79 152.65 L 174.79 153.85 L 173.99 156.65 L 173.49 157.85 L 172.19 160.55 L 171.49 162.65 L 171.29 162.95 L 170.69 163.35 L 170.09 163.55 L 169.59 163.85 L 168.99 164.55 L 168.49 165.55 L 167.69 169.65 L 166.49 172.15 L 162.69 172.75 L 161.69 173.05 L 160.99 173.45 L 160.39 173.95 L 158.19 177.15 L 157.89 177.85 L 157.59 178.55 L 157.29 179.15 L 156.39 179.75 L 156.09 180.05 L 156.09 180.95 L 155.89 181.85 L 155.59 182.45 L 155.09 183.05 L 154.29 183.95 L 153.29 185.55 L 152.59 186.35 L 149.59 188.75 L 148.69 189.25 L 147.59 189.55 L 146.69 189.35 L 145.69 189.35 L 145.39 189.25 L 145.29 188.95 L 145.49 188.05 L 145.29 187.85 L 144.89 188.15 L 144.29 188.75 L 143.89 189.65 L 143.49 190.95 L 142.99 192.15 L 142.49 194.05 L 141.29 197.25 L 140.79 197.95 L 138.49 199.85 L 137.19 200.45 L 136.49 200.95 L 136.09 201.85 L 135.99 202.95 L 136.19 204.35 L 136.09 204.75 L 135.79 205.05 L 134.49 205.35 L 133.49 205.95 L 132.89 206.25 L 132.49 206.75 L 132.19 207.45 L 131.89 208.95 L 131.89 209.65 L 132.09 210.45 L 132.29 211.05 L 132.99 212.05 L 132.99 212.45 L 132.69 213.05 L 130.69 214.35 L 127.09 214.85 L 126.99 215.25 L 127.39 215.75 L 127.99 216.55 L 128.79 217.15 L 129.29 217.45 L 130.29 217.75 L 130.49 217.95 L 130.39 218.75 L 130.49 219.25 L 130.99 221.05 L 130.79 221.65 L 129.89 221.85 L 127.59 221.65 L 126.79 222.15 L 126.49 222.55 L 126.09 222.65 L 125.29 222.05 L 124.79 221.75 L 124.29 221.95 L 123.89 222.45 L 123.29 223.45 L 122.89 223.75 L 122.09 224.15 L 121.49 224.45 L 120.79 224.95 L 120.39 225.55 L 119.99 226.25 L 119.59 226.85 L 119.09 227.45 L 118.59 228.15 L 118.49 228.75 L 118.39 229.75 L 118.19 230.55 L 117.89 230.85 L 117.39 231.05 L 115.69 231.25 L 113.19 231.15 L 111.99 230.85 L 110.99 230.35 L 110.49 229.75 L 110.39 229.15 L 110.39 228.65 L 110.79 227.55 L 111.49 226.45 L 111.59 226.15 L 111.79 224.35 L 111.69 223.85 L 111.49 223.35 L 110.69 222.65 L 110.59 222.25 L 110.69 221.35 L 110.39 220.85 L 109.59 220.35 L 107.79 220.15 L 106.79 220.15 L 104.69 220.85 L 103.49 221.05 L 99.29 220.85 L 98.39 221.15 L 97.99 221.15 L 96.89 221.05 L 95.29 221.35 L 94.19 218.85 L 93.39 217.75 L 93.09 216.95 L 92.99 216.15 L 93.29 215.45 L 95.39 213.95 L 95.09 212.55 L 95.09 210.85 L 96.39 209.65 L 97.09 209.55 L 98.09 209.55 L 98.29 208.75 L 98.29 207.85 L 98.39 206.75 L 98.69 205.75 L 98.49 204.35 L 98.69 203.45 L 99.79 202.95 L 99.69 201.55 L 97.89 199.05 L 94.29 194.85 L 91.49 189.75 L 90.19 186.75 L 89.39 184.95 L 89.79 183.75 L 90.49 183.05 L 91.39 182.35 L 92.19 181.45 L 93.09 180.35 L 93.79 179.45 L 94.49 178.65 L 94.69 178.15 L 95.39 177.85 L 96.19 178.15 L 96.99 178.15 L 97.89 177.55 L 98.69 177.25 L 99.59 177.45 L 100.99 176.95 L 100.79 177.45 L 101.89 177.95 L 102.79 178.05 L 103.49 177.45 L 103.99 177.25 L 104.39 176.65 L 105.09 176.45 L 105.69 177.35 L 106.19 177.45 L 107.29 177.55 L 108.69 176.95 L 109.99 175.85 L 111.39 174.45 L 112.19 170.75 L 113.19 165.65 L 114.29 162.75 L 115.69 160.05 L 116.39 158.25 L 116.69 157.95 L 117.19 157.55 L 118.09 157.45 L 118.79 157.25 L 118.89 158.75 L 119.79 159.95 L 121.39 160.65 L 122.89 160.85 L 126.09 160.95 L 126.09 160.25 L 124.49 159.75 L 122.69 159.35 L 121.49 159.35 L 120.59 158.75 L 119.99 157.05 L 119.19 155.65 L 118.39 155.35 L 117.89 154.75 L 117.89 153.25 L 117.19 151.65 L 116.99 149.85 L 116.19 148.05 L 115.09 146.75 L 114.39 144.25 L 114.99 143.35 L 116.29 143.25 L 118.19 141.65 L 119.99 138.85 L 120.59 137.85 L 120.79 137.05 L 121.29 135.75 L 121.79 134.75 L 123.09 134.35 L 124.69 131.85 L 125.79 132.75 L 126.99 132.15 L 128.49 131.05 L 130.09 129.85 L 133.69 125.95 L 136.49 122.35 L 137.49 121.05 L 137.89 119.85 L 137.99 119.15 L 138.29 118.95 L 139.99 118.35 L 140.89 116.15 L 141.39 114.15 L 141.69 111.05 L 141.59 109.55 L 141.19 107.05 L 140.99 102.55 L 141.59 100.95 L 141.59 100.45 L 141.69 100.25 L 142.39 100.55 L 142.69 100.85 L 142.89 101.25 L 143.19 102.15 L 143.59 102.15 L 143.69 101.45 L 143.89 100.95 L 145.49 104.55 L 146.19 105.65 L 147.09 105.95 L 147.89 106.05 L 148.29 105.95 L 149.19 105.15 L 149.49 104.75 L 150.09 103.55 L 150.19 102.85 L 150.39 102.55 L 150.79 102.45 L 152.79 102.55 L 153.79 102.45 L 154.89 102.25 L 156.09 101.75 L 156.69 101.35 L 157.89 99.95 L 158.59 99.55 L 159.29 99.25 L 160.09 99.15 L 160.69 99.45 L 161.29 99.85 L 161.79 100.35 L 161.99 100.85 L 161.89 101.15 L 161.29 101.75 L 160.89 102.55 L 160.89 102.95 L 160.99 103.45 L 161.39 103.85 L 164.19 105.55 L 164.49 105.95 L 164.59 106.15 L 164.39 106.55 L 163.99 106.95 L 163.59 107.15 L 162.99 107.95 L 162.69 108.35 L 161.59 109.95 L 161.59 110.35 L 162.49 111.15 L 163.09 111.35 L 163.69 111.15 L 164.19 111.05 L 164.39 111.35 L 164.49 112.35 L 164.69 112.85 L 164.99 112.85 L 165.69 112.45 L 165.99 112.25 L 166.49 112.55 L 166.89 112.95 L 168.09 114.05 L 168.89 114.35 L 169.29 114.35 L 169.59 114.75 L 167.99 116.45 L 167.79 116.95 L 167.69 117.65 L 167.39 117.95 L 166.99 118.15 L 166.59 118.75 L 166.59 119.15 L 166.79 119.75 L 166.79 120.45 L 166.99 120.75 L 167.99 122.35 Z"
    id="ECU1282" name="Manabi" />
  <path
    d="M 241.79 212.45 L 241.19 213.35 L 241.09 213.85 L 241.09 214.65 L 241.69 216.35 L 241.79 216.95 L 241.69 217.55 L 241.49 218.05 L 240.99 218.65 L 240.39 219.05 L 238.99 219.85 L 238.49 220.35 L 238.09 220.85 L 237.59 221.45 L 236.49 222.55 L 236.19 223.15 L 236.09 223.75 L 236.09 225.05 L 236.19 226.05 L 236.39 227.05 L 236.69 227.55 L 237.29 228.25 L 237.49 228.75 L 237.69 230.15 L 238.09 231.95 L 237.99 232.75 L 235.59 235.35 L 233.99 237.95 L 233.69 238.55 L 233.79 239.25 L 233.99 239.75 L 234.39 240.15 L 234.89 240.45 L 235.29 241.05 L 235.49 241.75 L 235.49 243.25 L 235.69 243.95 L 236.29 245.15 L 236.19 245.55 L 235.39 246.15 L 234.49 246.55 L 233.69 247.25 L 233.09 248.25 L 232.69 249.85 L 232.89 252.25 L 233.19 252.85 L 233.19 253.15 L 232.89 253.65 L 231.89 254.45 L 231.29 254.95 L 231.09 255.75 L 231.09 256.45 L 230.79 257.15 L 230.39 257.75 L 228.39 259.25 L 227.19 258.65 L 219.69 259.55 L 217.49 260.05 L 215.99 260.55 L 214.59 261.95 L 213.59 262.85 L 211.59 263.85 L 209.69 264.35 L 207.99 264.45 L 206.59 264.35 L 205.89 263.95 L 204.69 263.15 L 203.39 262.65 L 202.59 262.05 L 201.69 261.25 L 199.79 258.55 L 199.29 258.05 L 198.29 257.45 L 197.99 256.95 L 197.69 256.05 L 197.39 255.85 L 196.79 255.45 L 196.39 255.25 L 195.89 254.35 L 195.59 252.75 L 198.79 251.05 L 200.99 248.95 L 202.09 247.25 L 202.39 246.55 L 202.49 245.85 L 202.39 245.25 L 202.09 244.75 L 201.89 244.15 L 201.89 243.45 L 203.39 235.75 L 203.39 235.15 L 202.99 233.85 L 202.89 231.95 L 203.09 229.25 L 203.09 228.25 L 203.29 227.65 L 203.59 227.15 L 204.09 226.75 L 204.79 226.35 L 206.99 226.05 L 207.79 225.85 L 209.89 223.95 L 211.09 222.15 L 211.69 220.65 L 211.89 219.05 L 211.79 217.05 L 211.89 215.65 L 212.09 214.25 L 212.09 213.25 L 211.79 212.45 L 210.89 210.95 L 210.59 210.25 L 210.39 209.65 L 210.49 208.45 L 211.69 208.05 L 213.59 206.75 L 214.49 206.45 L 215.29 206.35 L 215.99 206.55 L 216.89 206.95 L 218.69 208.25 L 219.89 208.95 L 221.29 209.55 L 224.39 210.25 L 225.99 210.25 L 227.39 210.05 L 228.49 209.65 L 229.59 209.55 L 230.49 209.65 L 231.49 209.85 L 232.19 209.65 L 232.69 209.05 L 233.09 208.05 L 233.59 207.35 L 234.29 207.35 L 235.09 207.65 L 236.49 208.65 L 237.29 208.95 L 238.39 209.25 L 239.09 209.55 L 239.69 209.95 L 240.49 210.25 L 240.89 210.45 L 241.09 210.65 L 241.29 211.75 L 241.79 212.45 Z"
    id="ECU1284" name="Chimborazo" />
  <path
    d="M 341.89 274.25 L 340.99 274.85 L 328.09 279.35 L 313.09 284.65 L 298.19 289.85 L 290.69 292.45 L 271.79 299.05 L 270.69 299.65 L 266.29 303.55 L 260.29 311.55 L 257.39 313.95 L 256.59 314.85 L 254.79 318.45 L 253.99 319.45 L 251.89 321.15 L 251.19 321.95 L 251.09 323.25 L 251.79 324.35 L 252.79 325.05 L 253.49 325.85 L 253.59 327.55 L 253.09 328.75 L 252.19 329.15 L 251.09 329.35 L 250.19 330.15 L 249.39 330.45 L 248.79 329.45 L 247.99 325.55 L 247.49 324.65 L 246.79 324.05 L 244.19 323.35 L 242.99 323.15 L 241.99 323.45 L 241.29 324.65 L 241.39 325.05 L 241.69 326.15 L 241.69 326.85 L 241.29 329.45 L 240.49 331.85 L 232.99 331.75 L 228.69 332.55 L 227.49 332.55 L 225.19 332.35 L 224.49 332.45 L 223.89 332.55 L 223.39 333.05 L 222.79 334.15 L 222.49 334.55 L 222.09 334.85 L 221.69 334.75 L 220.69 334.25 L 220.09 334.05 L 218.09 333.85 L 215.59 333.15 L 213.89 332.85 L 213.29 332.55 L 212.89 332.25 L 212.69 331.45 L 212.49 331.05 L 211.99 330.65 L 211.49 329.95 L 211.19 328.95 L 211.09 327.85 L 210.89 327.05 L 210.89 326.25 L 211.09 325.85 L 212.39 324.65 L 212.49 324.25 L 212.49 323.95 L 212.29 323.45 L 211.89 323.05 L 206.99 319.55 L 206.69 318.45 L 206.79 318.05 L 207.09 317.45 L 214.39 311.55 L 215.59 310.35 L 217.79 309.65 L 219.89 308.55 L 221.29 307.35 L 222.89 305.65 L 223.49 304.65 L 223.69 303.55 L 223.59 302.65 L 223.59 301.75 L 223.79 300.75 L 225.19 297.75 L 225.39 297.15 L 225.79 296.15 L 228.59 291.55 L 228.89 290.65 L 228.89 290.15 L 228.69 289.55 L 228.29 288.95 L 227.79 288.35 L 227.39 287.85 L 227.19 287.45 L 227.29 287.05 L 229.19 283.65 L 229.69 282.95 L 230.29 282.45 L 236.89 279.05 L 237.49 278.55 L 237.79 278.05 L 237.79 277.55 L 237.39 276.45 L 236.99 276.05 L 235.09 274.65 L 234.79 274.55 L 234.19 274.45 L 233.69 274.65 L 233.09 274.95 L 232.49 275.55 L 232.09 276.15 L 231.89 276.75 L 231.79 277.45 L 231.49 277.75 L 231.09 277.85 L 230.59 277.55 L 230.09 277.15 L 229.89 276.55 L 229.79 275.95 L 230.19 274.15 L 230.59 274.45 L 230.99 274.45 L 231.39 274.15 L 231.99 273.45 L 233.49 271.25 L 233.69 270.75 L 233.79 270.25 L 233.79 269.05 L 234.09 267.95 L 233.99 264.55 L 234.19 263.35 L 233.79 262.65 L 232.89 261.95 L 229.19 260.35 L 228.39 259.85 L 228.39 259.25 L 230.39 257.75 L 230.79 257.15 L 231.09 256.45 L 231.09 255.75 L 231.29 254.95 L 231.89 254.45 L 232.89 253.65 L 233.19 253.15 L 233.19 252.85 L 232.89 252.25 L 232.69 249.85 L 233.09 248.25 L 233.69 247.25 L 234.49 246.55 L 235.39 246.15 L 236.19 245.55 L 236.29 245.15 L 235.69 243.95 L 235.49 243.25 L 235.49 241.75 L 235.29 241.05 L 234.89 240.45 L 234.39 240.15 L 233.99 239.75 L 233.79 239.25 L 233.69 238.55 L 233.99 237.95 L 235.59 235.35 L 237.99 232.75 L 238.09 231.95 L 237.69 230.15 L 237.49 228.75 L 237.29 228.25 L 236.69 227.55 L 236.39 227.05 L 236.19 226.05 L 236.09 225.05 L 236.09 223.75 L 236.19 223.15 L 236.49 222.55 L 237.59 221.45 L 238.09 220.85 L 238.49 220.35 L 238.99 219.85 L 240.39 219.05 L 240.99 218.65 L 241.49 218.05 L 241.69 217.55 L 241.79 216.95 L 241.69 216.35 L 241.09 214.65 L 241.09 213.85 L 241.19 213.35 L 241.79 212.45 L 242.79 211.05 L 243.49 210.55 L 244.59 209.95 L 245.49 209.75 L 247.49 210.05 L 248.99 210.05 L 249.79 209.75 L 250.79 209.35 L 251.39 208.85 L 252.59 207.65 L 255.09 208.25 L 256.59 209.35 L 257.39 210.25 L 258.19 211.25 L 258.69 212.05 L 260.49 216.75 L 260.99 218.75 L 261.59 220.15 L 262.29 220.85 L 265.89 220.15 L 266.99 220.25 L 267.89 220.85 L 268.59 222.15 L 269.39 226.05 L 270.49 227.85 L 270.69 228.35 L 270.69 229.65 L 270.89 230.45 L 271.79 231.95 L 272.09 232.75 L 272.19 234.55 L 272.39 235.45 L 272.99 236.15 L 273.99 236.75 L 276.39 237.25 L 277.49 237.75 L 278.29 238.45 L 278.59 239.35 L 278.89 240.35 L 279.29 241.25 L 279.99 241.95 L 280.99 242.35 L 283.09 242.85 L 299.39 249.85 L 313.09 258.65 L 314.09 258.95 L 314.99 259.35 L 315.69 260.25 L 316.79 262.15 L 318.89 264.65 L 319.39 265.55 L 320.19 266.25 L 320.49 267.05 L 321.29 269.05 L 322.69 270.75 L 324.69 272.15 L 327.19 272.85 L 329.79 272.75 L 331.59 272.15 L 332.29 272.25 L 333.29 272.95 L 334.09 273.35 L 336.09 273.75 L 338.59 275.05 L 339.89 274.65 L 341.09 274.05 L 341.89 274.25 Z"
    id="ECU1285" name="Morona Santiago" />
  <path
    d="M 425.39 159.75 L 424.59 160.15 L 423.99 160.55 L 423.69 161.25 L 423.79 161.85 L 423.99 162.95 L 424.09 163.55 L 423.99 164.15 L 423.59 165.25 L 423.59 165.95 L 426.19 174.95 L 426.19 175.55 L 426.09 176.55 L 426.19 177.05 L 426.69 177.75 L 427.29 178.25 L 427.69 178.85 L 427.69 179.25 L 427.19 179.25 L 424.39 179.25 L 421.79 179.55 L 420.49 179.55 L 419.89 179.05 L 419.49 178.45 L 418.69 177.55 L 416.99 176.05 L 416.69 176.55 L 414.09 186.45 L 407.89 210.95 L 407.09 213.05 L 406.69 213.65 L 405.99 212.45 L 405.79 211.15 L 405.39 210.65 L 404.99 210.35 L 404.49 210.35 L 403.89 210.15 L 403.49 209.75 L 403.09 209.55 L 402.79 209.55 L 402.39 209.25 L 400.69 208.55 L 400.09 208.45 L 399.79 208.25 L 399.49 207.65 L 399.39 207.65 L 398.89 208.05 L 398.49 208.25 L 398.29 208.05 L 398.19 207.55 L 397.59 206.75 L 396.79 205.25 L 396.49 204.95 L 395.79 205.05 L 394.89 204.75 L 393.99 204.75 L 393.79 204.55 L 393.29 204.15 L 392.79 203.85 L 392.39 203.75 L 391.69 203.95 L 390.99 202.35 L 390.59 202.15 L 389.19 201.75 L 388.89 201.45 L 388.79 201.15 L 388.99 200.65 L 388.79 200.55 L 388.09 200.65 L 387.89 201.05 L 387.99 201.55 L 387.29 201.85 L 386.79 201.75 L 385.69 201.75 L 384.69 201.55 L 383.89 201.15 L 383.49 200.75 L 383.19 200.55 L 382.49 200.55 L 381.49 199.55 L 380.79 199.35 L 379.99 199.25 L 378.99 198.75 L 378.39 198.95 L 378.29 198.85 L 378.29 198.15 L 377.99 197.55 L 377.79 197.45 L 377.49 197.75 L 377.09 197.85 L 376.49 197.85 L 375.49 197.35 L 374.59 197.35 L 374.29 197.65 L 374.19 197.35 L 373.89 197.35 L 373.09 198.05 L 372.69 198.45 L 371.49 198.45 L 370.99 198.15 L 369.59 198.25 L 369.09 198.05 L 368.49 198.05 L 367.89 198.45 L 367.59 198.35 L 367.29 197.85 L 367.19 197.85 L 366.49 198.55 L 365.89 198.55 L 365.39 198.95 L 365.09 199.45 L 364.79 199.55 L 364.69 199.05 L 363.99 198.75 L 363.09 198.65 L 361.59 198.25 L 360.79 198.15 L 360.39 197.95 L 360.59 197.45 L 360.19 196.75 L 359.09 196.65 L 358.29 196.15 L 357.99 196.15 L 357.19 196.45 L 356.49 196.55 L 355.89 196.45 L 355.29 196.55 L 355.09 196.35 L 355.09 195.75 L 354.69 195.95 L 354.19 196.05 L 353.89 195.85 L 353.49 195.35 L 353.39 194.65 L 352.99 194.05 L 352.39 193.65 L 351.39 192.25 L 350.99 191.35 L 350.89 190.05 L 350.89 187.75 L 351.09 186.95 L 351.09 186.05 L 350.89 185.35 L 350.09 184.45 L 349.29 184.15 L 348.29 183.85 L 347.29 183.75 L 346.39 183.85 L 344.89 184.25 L 343.79 184.45 L 343.49 184.65 L 342.99 185.25 L 342.69 185.55 L 342.19 185.65 L 341.59 185.75 L 340.39 186.05 L 339.19 186.25 L 337.79 186.35 L 337.39 186.45 L 336.49 186.85 L 335.99 186.95 L 335.09 186.75 L 334.49 186.35 L 333.89 186.25 L 333.49 186.35 L 332.39 187.45 L 332.09 187.95 L 331.89 188.55 L 331.59 189.95 L 331.19 190.35 L 330.09 190.45 L 324.39 188.05 L 319.59 186.95 L 318.89 186.65 L 318.49 185.95 L 318.19 184.35 L 317.89 183.45 L 317.99 183.05 L 319.19 181.65 L 319.69 180.35 L 319.19 179.65 L 318.89 179.35 L 318.59 178.85 L 318.79 178.55 L 319.79 177.55 L 320.19 177.05 L 320.09 176.65 L 319.79 176.35 L 318.99 176.15 L 316.49 175.75 L 315.49 175.35 L 312.79 173.45 L 312.29 173.25 L 311.79 173.05 L 311.19 172.75 L 310.79 172.25 L 310.59 171.25 L 310.69 170.35 L 311.09 169.35 L 311.79 168.35 L 314.69 165.65 L 315.19 164.95 L 315.49 164.35 L 315.29 163.95 L 314.89 163.65 L 314.09 163.65 L 313.29 164.15 L 312.49 164.55 L 309.79 167.05 L 308.39 169.95 L 307.59 170.95 L 307.09 171.15 L 304.99 171.95 L 295.59 176.45 L 294.89 176.95 L 293.79 177.25 L 293.59 177.35 L 292.59 177.75 L 291.49 178.05 L 289.99 178.15 L 288.59 177.95 L 287.89 177.45 L 287.89 176.95 L 288.49 176.45 L 288.99 175.75 L 289.49 174.95 L 290.89 171.55 L 290.99 170.75 L 290.49 168.85 L 290.59 167.95 L 290.89 166.85 L 291.39 165.85 L 291.79 165.15 L 292.59 164.05 L 292.79 163.45 L 292.79 162.65 L 292.29 161.15 L 291.99 160.55 L 291.49 160.15 L 290.69 159.65 L 290.39 159.25 L 289.69 157.95 L 288.09 155.85 L 287.39 155.25 L 286.79 154.95 L 286.19 154.85 L 285.49 154.45 L 285.29 153.95 L 285.39 153.45 L 285.79 153.05 L 286.29 152.55 L 288.19 151.45 L 288.59 151.05 L 288.79 150.55 L 288.79 149.85 L 288.79 149.35 L 288.99 148.85 L 289.49 148.75 L 290.29 149.05 L 292.89 150.65 L 294.19 151.25 L 295.69 151.75 L 296.79 151.95 L 297.59 151.85 L 298.29 151.55 L 298.79 151.05 L 300.19 148.75 L 300.89 147.25 L 301.09 146.85 L 301.39 146.65 L 301.69 146.65 L 302.49 146.85 L 302.69 146.75 L 302.89 146.35 L 302.89 145.45 L 302.89 144.95 L 303.09 144.55 L 304.89 143.75 L 305.49 143.45 L 305.99 142.95 L 306.29 142.45 L 306.19 141.45 L 306.29 141.05 L 306.99 140.45 L 307.19 139.95 L 307.19 139.05 L 306.59 137.95 L 306.79 137.35 L 306.99 136.55 L 306.79 136.15 L 306.09 135.15 L 305.29 134.15 L 304.89 133.55 L 304.59 132.85 L 304.59 132.25 L 304.79 131.45 L 304.89 129.75 L 305.09 129.15 L 304.49 124.95 L 305.39 124.35 L 306.19 124.55 L 307.19 124.85 L 308.79 125.65 L 310.59 126.85 L 311.19 127.05 L 311.89 126.85 L 312.59 126.65 L 313.49 126.45 L 314.59 126.65 L 317.89 127.55 L 319.39 127.65 L 320.69 127.45 L 321.49 126.95 L 322.19 126.45 L 323.09 126.05 L 323.99 125.65 L 325.49 125.45 L 326.39 125.65 L 327.19 126.15 L 327.59 126.65 L 328.19 127.65 L 334.29 134.95 L 336.09 136.55 L 336.39 137.05 L 336.59 137.95 L 337.69 139.55 L 338.19 140.15 L 339.29 141.85 L 339.99 142.45 L 343.29 144.85 L 343.79 145.45 L 344.09 145.95 L 344.79 146.85 L 346.09 146.05 L 347.49 145.65 L 348.79 147.35 L 351.89 149.75 L 352.99 150.25 L 355.39 150.15 L 356.29 150.45 L 356.69 151.35 L 357.39 151.85 L 358.79 151.25 L 361.19 149.45 L 361.69 149.25 L 363.59 148.65 L 364.89 148.05 L 365.39 147.85 L 369.99 147.45 L 375.59 147.85 L 375.89 148.15 L 376.29 148.75 L 376.59 149.55 L 376.79 150.95 L 377.09 151.35 L 378.29 151.95 L 380.69 153.65 L 382.09 154.45 L 383.39 154.75 L 384.79 154.85 L 385.49 154.95 L 385.79 154.75 L 385.89 154.55 L 385.49 153.85 L 385.19 153.15 L 384.69 148.25 L 384.69 147.35 L 384.89 146.65 L 385.59 146.35 L 386.59 146.05 L 388.49 146.15 L 389.59 146.35 L 390.39 146.85 L 391.09 147.35 L 391.79 147.55 L 392.29 147.45 L 392.89 147.25 L 393.39 147.15 L 394.79 147.15 L 395.49 147.05 L 396.69 146.65 L 397.19 146.75 L 397.69 147.15 L 397.99 147.55 L 398.49 148.35 L 398.89 148.75 L 399.59 149.15 L 400.29 149.15 L 401.19 148.85 L 401.69 148.65 L 402.29 148.55 L 402.89 148.85 L 403.59 149.25 L 404.89 149.85 L 405.59 150.25 L 405.89 150.55 L 406.19 151.25 L 406.39 151.25 L 407.09 150.95 L 407.39 151.45 L 407.49 152.05 L 407.89 152.85 L 408.99 153.75 L 410.89 154.35 L 411.79 154.35 L 414.49 154.35 L 415.19 154.65 L 415.79 155.05 L 416.29 155.15 L 417.19 155.15 L 417.49 155.35 L 417.79 155.85 L 418.09 156.95 L 418.49 157.35 L 419.49 157.55 L 420.39 157.95 L 422.49 158.55 L 423.19 158.55 L 423.99 158.35 L 424.29 158.65 L 424.19 159.35 L 424.39 159.85 L 425.39 159.75 Z"
    id="ECU1286" name="Orellana" />
  <path
    d="M 202.69 105.55 L 203.69 107.85 L 204.29 108.25 L 205.19 108.65 L 206.19 108.95 L 207.09 108.85 L 207.89 108.65 L 209.09 108.55 L 211.49 107.85 L 216.59 107.25 L 217.99 107.35 L 223.99 108.65 L 225.29 108.65 L 226.09 108.55 L 226.69 108.35 L 229.79 107.95 L 231.09 107.65 L 231.89 107.65 L 235.09 107.05 L 238.19 106.85 L 239.79 107.05 L 240.79 107.45 L 241.19 107.95 L 241.39 108.55 L 241.49 109.25 L 241.39 109.85 L 241.09 110.85 L 240.99 111.25 L 241.09 111.55 L 241.49 111.45 L 242.49 110.45 L 243.19 110.15 L 243.79 110.25 L 244.39 110.75 L 245.69 111.85 L 246.59 112.55 L 247.69 113.05 L 249.29 113.55 L 250.79 113.45 L 252.39 113.15 L 255.09 111.85 L 256.09 111.25 L 257.49 110.15 L 258.19 109.75 L 259.19 109.75 L 266.09 111.85 L 264.59 114.35 L 264.59 114.65 L 264.89 114.85 L 265.59 115.05 L 266.29 115.25 L 266.89 115.25 L 268.39 116.05 L 269.29 116.35 L 270.09 116.55 L 270.89 117.05 L 271.39 117.65 L 271.59 118.25 L 271.79 119.15 L 271.99 119.35 L 272.79 119.55 L 271.99 120.95 L 271.29 121.45 L 267.09 123.65 L 264.89 124.35 L 264.49 124.75 L 264.29 125.25 L 264.19 126.85 L 263.99 127.45 L 263.69 127.75 L 263.39 127.95 L 262.99 128.25 L 262.39 129.35 L 262.09 129.55 L 261.49 129.65 L 260.19 129.25 L 259.69 129.25 L 259.39 129.35 L 259.09 130.45 L 258.39 131.65 L 257.89 132.15 L 257.19 132.45 L 256.69 132.45 L 256.39 132.35 L 255.79 131.75 L 255.29 131.55 L 254.79 131.55 L 253.39 132.05 L 252.29 132.25 L 251.89 132.65 L 251.79 133.15 L 251.89 133.75 L 251.69 139.15 L 251.29 140.55 L 250.49 141.95 L 248.89 144.15 L 248.19 145.35 L 247.89 146.15 L 248.79 147.85 L 248.69 148.45 L 248.39 149.25 L 247.69 150.45 L 247.39 151.15 L 247.29 151.75 L 247.29 152.35 L 247.19 153.15 L 246.69 154.35 L 245.99 155.25 L 244.89 156.35 L 244.29 157.15 L 243.99 157.95 L 243.79 159.55 L 243.59 160.35 L 243.19 160.85 L 242.69 161.15 L 241.19 161.45 L 240.49 161.65 L 239.19 162.25 L 235.39 158.15 L 233.69 157.45 L 232.89 157.55 L 231.49 157.35 L 230.59 157.35 L 229.99 157.45 L 228.39 158.35 L 227.79 158.55 L 227.39 158.35 L 226.59 157.55 L 226.09 157.65 L 225.39 157.95 L 224.69 158.45 L 223.89 158.85 L 223.39 159.05 L 222.89 159.25 L 221.29 160.45 L 220.79 160.55 L 220.39 160.35 L 219.99 159.85 L 219.79 159.25 L 219.69 158.25 L 219.09 156.95 L 218.09 155.55 L 214.29 152.95 L 213.49 152.25 L 213.29 151.55 L 212.89 150.05 L 212.69 149.55 L 211.99 148.45 L 211.09 146.85 L 208.89 143.95 L 208.69 143.55 L 208.69 142.85 L 208.49 142.45 L 207.99 142.05 L 209.79 139.25 L 217.39 138.45 L 218.49 134.35 L 215.49 130.95 L 209.79 127.85 L 207.99 126.05 L 197.39 126.35 L 196.99 121.45 L 184.99 121.05 L 181.69 118.65 L 182.89 115.75 L 183.69 114.35 L 184.39 112.65 L 185.09 111.55 L 185.29 111.15 L 185.29 110.85 L 185.09 110.45 L 184.19 109.55 L 182.59 108.45 L 182.39 108.05 L 182.39 107.65 L 182.79 107.25 L 183.29 106.85 L 184.49 106.35 L 185.29 105.85 L 186.59 104.75 L 187.09 104.45 L 187.89 104.15 L 188.49 103.85 L 190.19 102.65 L 190.89 102.55 L 191.79 102.55 L 193.19 102.65 L 194.69 102.55 L 200.99 103.95 L 201.79 104.45 L 202.69 105.55 Z"
    id="ECU1287" name="Pichincha" />
  <path
    d="M 406.69 213.65 L 405.69 214.75 L 402.49 217.75 L 391.19 230.95 L 385.19 237.95 L 376.29 248.35 L 369.19 253.75 L 365.69 256.45 L 344.59 272.65 L 341.89 274.25 L 341.09 274.05 L 339.89 274.65 L 338.59 275.05 L 336.09 273.75 L 334.09 273.35 L 333.29 272.95 L 332.29 272.25 L 331.59 272.15 L 329.79 272.75 L 327.19 272.85 L 324.69 272.15 L 322.69 270.75 L 321.29 269.05 L 320.49 267.05 L 320.19 266.25 L 319.39 265.55 L 318.89 264.65 L 316.79 262.15 L 315.69 260.25 L 314.99 259.35 L 314.09 258.95 L 313.09 258.65 L 299.39 249.85 L 283.09 242.85 L 280.99 242.35 L 279.99 241.95 L 279.29 241.25 L 278.89 240.35 L 278.59 239.35 L 278.29 238.45 L 277.49 237.75 L 276.39 237.25 L 273.99 236.75 L 272.99 236.15 L 272.39 235.45 L 272.19 234.55 L 272.09 232.75 L 271.79 231.95 L 270.89 230.45 L 270.69 229.65 L 270.69 228.35 L 270.49 227.85 L 269.39 226.05 L 268.59 222.15 L 267.89 220.85 L 266.99 220.25 L 265.89 220.15 L 262.29 220.85 L 261.59 220.15 L 260.99 218.75 L 260.49 216.75 L 258.69 212.05 L 258.19 211.25 L 257.39 210.25 L 256.59 209.35 L 255.09 208.25 L 252.59 207.65 L 253.99 206.35 L 255.59 203.25 L 255.89 202.35 L 255.99 201.45 L 255.89 194.95 L 258.89 195.15 L 260.59 195.05 L 264.79 194.35 L 266.29 194.35 L 267.19 194.55 L 268.39 195.15 L 268.89 195.15 L 269.29 194.85 L 269.59 194.05 L 269.79 193.85 L 270.19 193.75 L 270.69 193.95 L 271.29 194.25 L 271.99 194.45 L 272.89 194.25 L 274.29 193.55 L 276.59 191.95 L 277.19 191.65 L 278.39 191.25 L 279.19 191.05 L 280.39 190.35 L 280.89 190.05 L 281.79 189.95 L 282.49 189.75 L 283.29 189.75 L 284.09 189.95 L 284.69 189.95 L 285.39 189.95 L 286.09 189.55 L 286.89 189.45 L 289.79 189.15 L 295.09 186.75 L 295.79 186.25 L 296.39 186.05 L 298.49 186.05 L 300.09 185.75 L 305.79 184.05 L 307.09 183.25 L 307.79 182.75 L 308.39 182.55 L 309.29 182.35 L 319.19 181.65 L 317.99 183.05 L 317.89 183.45 L 318.19 184.35 L 318.49 185.95 L 318.89 186.65 L 319.59 186.95 L 324.39 188.05 L 330.09 190.45 L 331.19 190.35 L 331.59 189.95 L 331.89 188.55 L 332.09 187.95 L 332.39 187.45 L 333.49 186.35 L 333.89 186.25 L 334.49 186.35 L 335.09 186.75 L 335.99 186.95 L 336.49 186.85 L 337.39 186.45 L 337.79 186.35 L 339.19 186.25 L 340.39 186.05 L 341.59 185.75 L 342.19 185.65 L 342.69 185.55 L 342.99 185.25 L 343.49 184.65 L 343.79 184.45 L 344.89 184.25 L 346.39 183.85 L 347.29 183.75 L 348.29 183.85 L 349.29 184.15 L 350.09 184.45 L 350.89 185.35 L 351.09 186.05 L 351.09 186.95 L 350.89 187.75 L 350.89 190.05 L 350.99 191.35 L 351.39 192.25 L 352.39 193.65 L 352.99 194.05 L 353.39 194.65 L 353.49 195.35 L 353.89 195.85 L 354.19 196.05 L 354.69 195.95 L 355.09 195.75 L 355.09 196.35 L 355.29 196.55 L 355.89 196.45 L 356.49 196.55 L 357.19 196.45 L 357.99 196.15 L 358.29 196.15 L 359.09 196.65 L 360.19 196.75 L 360.59 197.45 L 360.39 197.95 L 360.79 198.15 L 361.59 198.25 L 363.09 198.65 L 363.99 198.75 L 364.69 199.05 L 364.79 199.55 L 365.09 199.45 L 365.39 198.95 L 365.89 198.55 L 366.49 198.55 L 367.19 197.85 L 367.29 197.85 L 367.59 198.35 L 367.89 198.45 L 368.49 198.05 L 369.09 198.05 L 369.59 198.25 L 370.99 198.15 L 371.49 198.45 L 372.69 198.45 L 373.09 198.05 L 373.89 197.35 L 374.19 197.35 L 374.29 197.65 L 374.59 197.35 L 375.49 197.35 L 376.49 197.85 L 377.09 197.85 L 377.49 197.75 L 377.79 197.45 L 377.99 197.55 L 378.29 198.15 L 378.29 198.85 L 378.39 198.95 L 378.99 198.75 L 379.99 199.25 L 380.79 199.35 L 381.49 199.55 L 382.49 200.55 L 383.19 200.55 L 383.49 200.75 L 383.89 201.15 L 384.69 201.55 L 385.69 201.75 L 386.79 201.75 L 387.29 201.85 L 387.99 201.55 L 387.89 201.05 L 388.09 200.65 L 388.79 200.55 L 388.99 200.65 L 388.79 201.15 L 388.89 201.45 L 389.19 201.75 L 390.59 202.15 L 390.99 202.35 L 391.69 203.95 L 392.39 203.75 L 392.79 203.85 L 393.29 204.15 L 393.79 204.55 L 393.99 204.75 L 394.89 204.75 L 395.79 205.05 L 396.49 204.95 L 396.79 205.25 L 397.59 206.75 L 398.19 207.55 L 398.29 208.05 L 398.49 208.25 L 398.89 208.05 L 399.39 207.65 L 399.49 207.65 L 399.79 208.25 L 400.09 208.45 L 400.69 208.55 L 402.39 209.25 L 402.79 209.55 L 403.09 209.55 L 403.49 209.75 L 403.89 210.15 L 404.49 210.35 L 404.99 210.35 L 405.39 210.65 L 405.79 211.15 L 405.99 212.45 L 406.69 213.65 Z"
    id="ECU1288" name="Pastaza" />
  <path
    d="M 255.89 194.95 L 255.99 201.45 L 255.89 202.35 L 255.59 203.25 L 253.99 206.35 L 252.59 207.65 L 251.39 208.85 L 250.79 209.35 L 249.79 209.75 L 248.99 210.05 L 247.49 210.05 L 245.49 209.75 L 244.59 209.95 L 243.49 210.55 L 242.79 211.05 L 241.79 212.45 L 241.29 211.75 L 241.09 210.65 L 240.89 210.45 L 240.49 210.25 L 239.69 209.95 L 239.09 209.55 L 238.39 209.25 L 237.29 208.95 L 236.49 208.65 L 235.09 207.65 L 234.29 207.35 L 233.59 207.35 L 233.09 208.05 L 232.69 209.05 L 232.19 209.65 L 231.49 209.85 L 230.49 209.65 L 229.59 209.55 L 228.49 209.65 L 227.39 210.05 L 225.99 210.25 L 224.39 210.25 L 221.29 209.55 L 219.89 208.95 L 218.69 208.25 L 216.89 206.95 L 215.99 206.55 L 215.29 206.35 L 214.49 206.45 L 213.59 206.75 L 211.69 208.05 L 210.49 208.45 L 209.99 207.55 L 209.29 206.85 L 207.89 204.75 L 207.69 203.85 L 208.29 200.85 L 208.69 199.75 L 209.49 198.05 L 209.79 197.05 L 209.89 194.85 L 209.99 194.05 L 211.29 191.65 L 212.99 191.05 L 214.59 189.65 L 216.09 189.15 L 217.19 188.95 L 218.29 188.85 L 221.09 189.45 L 222.59 189.55 L 223.49 189.35 L 224.49 188.85 L 225.89 187.65 L 226.49 187.45 L 228.09 187.35 L 228.59 187.15 L 229.09 186.85 L 229.29 186.35 L 229.29 185.25 L 229.89 184.65 L 230.49 184.55 L 231.19 184.55 L 231.99 185.05 L 232.29 185.35 L 232.79 185.75 L 233.59 185.95 L 234.99 185.85 L 235.79 185.55 L 236.29 184.95 L 236.99 183.75 L 236.99 182.65 L 237.09 182.05 L 237.29 181.45 L 237.59 180.85 L 237.89 180.35 L 239.59 178.85 L 240.79 180.95 L 242.29 182.65 L 242.89 183.75 L 243.09 184.65 L 243.09 187.45 L 242.99 188.25 L 242.89 188.85 L 242.29 189.95 L 242.09 190.55 L 242.29 190.85 L 242.69 190.85 L 244.79 189.55 L 245.49 189.45 L 246.29 189.35 L 247.59 189.65 L 248.09 189.75 L 249.09 189.45 L 249.69 189.35 L 249.89 189.65 L 250.29 190.55 L 250.49 190.65 L 251.59 190.55 L 251.79 190.85 L 252.39 192.05 L 253.29 192.35 L 255.29 192.65 L 255.69 193.05 L 255.89 193.55 L 255.89 194.95 Z"
    id="ECU1289" name="Napo" />
  <path
    d="M 304.49 124.95 L 305.09 129.15 L 304.89 129.75 L 304.79 131.45 L 304.59 132.25 L 304.59 132.85 L 304.89 133.55 L 305.29 134.15 L 306.09 135.15 L 306.79 136.15 L 306.99 136.55 L 306.79 137.35 L 306.59 137.95 L 307.19 139.05 L 307.19 139.95 L 306.99 140.45 L 306.29 141.05 L 306.19 141.45 L 306.29 142.45 L 305.99 142.95 L 305.49 143.45 L 304.89 143.75 L 303.09 144.55 L 302.89 144.95 L 302.89 145.45 L 302.89 146.35 L 302.69 146.75 L 302.49 146.85 L 301.69 146.65 L 301.39 146.65 L 301.09 146.85 L 300.89 147.25 L 300.19 148.75 L 298.79 151.05 L 298.29 151.55 L 297.59 151.85 L 296.79 151.95 L 295.69 151.75 L 294.19 151.25 L 292.89 150.65 L 290.29 149.05 L 289.49 148.75 L 288.99 148.85 L 288.79 149.35 L 288.79 149.85 L 288.79 150.55 L 288.59 151.05 L 288.19 151.45 L 286.29 152.55 L 285.79 153.05 L 285.39 153.45 L 285.29 153.95 L 285.49 154.45 L 286.19 154.85 L 286.79 154.95 L 287.39 155.25 L 288.09 155.85 L 289.69 157.95 L 290.39 159.25 L 290.69 159.65 L 291.49 160.15 L 291.99 160.55 L 292.29 161.15 L 292.79 162.65 L 292.79 163.45 L 292.59 164.05 L 291.79 165.15 L 291.39 165.85 L 290.89 166.85 L 290.59 167.95 L 290.49 168.85 L 290.99 170.75 L 290.89 171.55 L 289.49 174.95 L 288.99 175.75 L 288.49 176.45 L 287.89 176.95 L 287.89 177.45 L 288.59 177.95 L 289.99 178.15 L 291.49 178.05 L 292.59 177.75 L 293.59 177.35 L 293.79 177.25 L 294.89 176.95 L 295.59 176.45 L 304.99 171.95 L 307.09 171.15 L 307.59 170.95 L 308.39 169.95 L 309.79 167.05 L 312.49 164.55 L 313.29 164.15 L 314.09 163.65 L 314.89 163.65 L 315.29 163.95 L 315.49 164.35 L 315.19 164.95 L 314.69 165.65 L 311.79 168.35 L 311.09 169.35 L 310.69 170.35 L 310.59 171.25 L 310.79 172.25 L 311.19 172.75 L 311.79 173.05 L 312.29 173.25 L 312.79 173.45 L 315.49 175.35 L 316.49 175.75 L 318.99 176.15 L 319.79 176.35 L 320.09 176.65 L 320.19 177.05 L 319.79 177.55 L 318.79 178.55 L 318.59 178.85 L 318.89 179.35 L 319.19 179.65 L 319.69 180.35 L 319.19 181.65 L 309.29 182.35 L 308.39 182.55 L 307.79 182.75 L 307.09 183.25 L 305.79 184.05 L 300.09 185.75 L 298.49 186.05 L 296.39 186.05 L 295.79 186.25 L 295.09 186.75 L 289.79 189.15 L 286.89 189.45 L 286.09 189.55 L 285.39 189.95 L 284.69 189.95 L 284.09 189.95 L 283.29 189.75 L 282.49 189.75 L 281.79 189.95 L 280.89 190.05 L 280.39 190.35 L 279.19 191.05 L 278.39 191.25 L 277.19 191.65 L 276.59 191.95 L 274.29 193.55 L 272.89 194.25 L 271.99 194.45 L 271.29 194.25 L 270.69 193.95 L 270.19 193.75 L 269.79 193.85 L 269.59 194.05 L 269.29 194.85 L 268.89 195.15 L 268.39 195.15 L 267.19 194.55 L 266.29 194.35 L 264.79 194.35 L 260.59 195.05 L 258.89 195.15 L 255.89 194.95 L 255.89 193.55 L 255.69 193.05 L 255.29 192.65 L 253.29 192.35 L 252.39 192.05 L 251.79 190.85 L 251.59 190.55 L 250.49 190.65 L 250.29 190.55 L 249.89 189.65 L 249.69 189.35 L 249.09 189.45 L 248.09 189.75 L 247.59 189.65 L 246.29 189.35 L 245.49 189.45 L 244.79 189.55 L 242.69 190.85 L 242.29 190.85 L 242.09 190.55 L 242.29 189.95 L 242.89 188.85 L 242.99 188.25 L 243.09 187.45 L 243.09 184.65 L 242.89 183.75 L 242.29 182.65 L 240.79 180.95 L 239.59 178.85 L 238.59 178.35 L 237.19 178.05 L 236.79 177.75 L 236.59 177.35 L 236.69 176.95 L 237.49 176.45 L 237.69 176.05 L 237.89 175.55 L 237.89 174.65 L 237.99 174.05 L 238.29 173.25 L 238.89 172.35 L 239.59 171.05 L 239.79 169.95 L 239.69 168.65 L 239.39 166.55 L 238.79 164.45 L 238.69 163.75 L 239.19 162.25 L 240.49 161.65 L 241.19 161.45 L 242.69 161.15 L 243.19 160.85 L 243.59 160.35 L 243.79 159.55 L 243.99 157.95 L 244.29 157.15 L 244.89 156.35 L 245.99 155.25 L 246.69 154.35 L 247.19 153.15 L 247.29 152.35 L 247.29 151.75 L 247.39 151.15 L 247.69 150.45 L 248.39 149.25 L 248.69 148.45 L 248.79 147.85 L 247.89 146.15 L 248.19 145.35 L 248.89 144.15 L 250.49 141.95 L 251.29 140.55 L 251.69 139.15 L 251.89 133.75 L 251.79 133.15 L 251.89 132.65 L 252.29 132.25 L 253.39 132.05 L 254.79 131.55 L 255.29 131.55 L 255.79 131.75 L 256.39 132.35 L 256.69 132.45 L 257.19 132.45 L 257.89 132.15 L 258.39 131.65 L 259.09 130.45 L 259.39 129.35 L 259.69 129.25 L 260.19 129.25 L 261.49 129.65 L 262.09 129.55 L 262.39 129.35 L 262.99 128.25 L 263.39 127.95 L 263.69 127.75 L 263.99 127.45 L 264.19 126.85 L 264.29 125.25 L 264.49 124.75 L 264.89 124.35 L 267.09 123.65 L 271.29 121.45 L 271.99 120.95 L 272.79 119.55 L 275.39 120.25 L 275.99 120.55 L 275.99 120.95 L 275.69 121.45 L 275.59 122.35 L 275.99 124.25 L 276.39 125.45 L 277.19 125.95 L 278.29 126.15 L 284.19 126.35 L 285.89 126.75 L 286.59 127.05 L 287.29 127.45 L 287.69 127.35 L 288.29 126.95 L 289.59 125.55 L 290.19 125.15 L 291.29 125.05 L 291.79 124.85 L 292.19 124.55 L 292.59 123.95 L 293.09 123.75 L 293.89 123.15 L 294.69 122.85 L 294.99 123.05 L 295.29 123.45 L 295.39 124.15 L 295.89 124.85 L 295.89 125.05 L 295.59 126.05 L 295.59 126.35 L 295.79 126.85 L 295.79 127.45 L 295.59 128.15 L 295.59 128.55 L 295.69 128.95 L 296.29 129.15 L 298.99 129.75 L 299.99 129.85 L 300.69 129.85 L 301.49 129.35 L 301.79 128.85 L 302.49 127.55 L 302.89 126.75 L 304.49 124.95 Z"
    id="ECU1290" name="Tungurahua" />
  <path
    d="M 209.39 45.75 L 208.59 47.35 L 207.19 46.65 L 206.59 47.35 L 205.89 47.85 L 204.69 46.95 L 203.79 45.95 L 203.59 44.85 L 204.49 43.55 L 209.19 39.65 L 209.29 40.65 L 209.59 41.35 L 209.59 43.35 L 209.39 45.75 Z M 234.39 50.75 L 233.39 51.75 L 233.29 52.15 L 233.29 52.95 L 233.39 54.05 L 233.49 55.95 L 233.09 57.25 L 231.69 59.55 L 231.29 60.65 L 230.99 64.05 L 231.19 65.15 L 231.69 66.15 L 232.59 67.15 L 233.29 67.05 L 234.19 67.65 L 235.29 68.75 L 236.19 69.45 L 236.49 69.55 L 236.49 71.85 L 236.59 72.95 L 236.39 73.75 L 235.99 74.45 L 235.49 74.95 L 235.09 75.15 L 234.69 75.35 L 233.49 75.45 L 232.99 75.55 L 232.39 75.85 L 232.29 76.25 L 232.39 76.75 L 234.19 80.05 L 234.49 80.65 L 234.89 82.35 L 235.19 83.05 L 235.49 83.65 L 237.09 85.55 L 237.59 86.55 L 237.69 87.45 L 237.49 88.25 L 237.19 88.65 L 236.69 89.05 L 236.19 89.25 L 235.29 89.35 L 234.69 89.35 L 233.79 89.15 L 233.29 89.25 L 232.69 89.45 L 230.79 90.85 L 230.29 91.35 L 229.49 92.55 L 227.49 94.65 L 225.49 97.25 L 224.49 98.35 L 223.49 99.05 L 223.09 99.25 L 222.69 99.35 L 222.29 99.15 L 221.79 98.85 L 220.99 98.05 L 220.59 97.75 L 219.99 97.55 L 218.89 97.45 L 217.69 97.15 L 216.99 96.85 L 214.89 96.65 L 213.09 96.05 L 212.39 96.15 L 211.69 96.35 L 210.59 97.05 L 209.89 97.65 L 209.19 98.45 L 208.69 99.35 L 208.69 99.95 L 208.59 100.15 L 207.89 100.45 L 206.69 101.85 L 204.69 104.95 L 204.09 105.55 L 203.79 105.65 L 202.69 105.55 L 201.79 104.45 L 200.99 103.95 L 194.69 102.55 L 193.19 102.65 L 191.79 102.55 L 190.89 102.55 L 190.19 102.65 L 188.49 103.85 L 187.89 104.15 L 187.09 104.45 L 186.59 104.75 L 185.29 105.85 L 184.49 106.35 L 183.29 106.85 L 182.79 107.25 L 182.39 107.65 L 182.39 108.05 L 182.59 108.45 L 184.19 109.55 L 185.09 110.45 L 185.29 110.85 L 185.29 111.15 L 185.09 111.55 L 184.39 112.65 L 183.69 114.35 L 182.89 115.75 L 181.69 118.65 L 181.39 119.35 L 180.59 120.15 L 179.79 120.45 L 178.19 120.85 L 177.69 121.15 L 176.59 121.55 L 176.49 121.85 L 176.59 122.15 L 177.19 123.05 L 177.49 123.25 L 177.99 123.15 L 178.39 123.45 L 178.29 123.85 L 177.99 124.05 L 177.59 124.45 L 177.39 124.45 L 176.89 124.05 L 175.79 123.45 L 174.09 123.05 L 170.39 122.55 L 169.19 122.25 L 167.99 122.35 L 166.99 120.75 L 166.79 120.45 L 166.79 119.75 L 166.59 119.15 L 166.59 118.75 L 166.99 118.15 L 167.39 117.95 L 167.69 117.65 L 167.79 116.95 L 167.99 116.45 L 169.59 114.75 L 169.29 114.35 L 168.89 114.35 L 168.09 114.05 L 166.89 112.95 L 166.49 112.55 L 165.99 112.25 L 165.69 112.45 L 164.99 112.85 L 164.69 112.85 L 164.49 112.35 L 164.39 111.35 L 164.19 111.05 L 163.69 111.15 L 163.09 111.35 L 162.49 111.15 L 161.59 110.35 L 161.59 109.95 L 162.69 108.35 L 162.99 107.95 L 163.59 107.15 L 163.99 106.95 L 164.39 106.55 L 164.59 106.15 L 164.49 105.95 L 164.19 105.55 L 161.39 103.85 L 160.99 103.45 L 160.89 102.95 L 160.89 102.55 L 161.29 101.75 L 161.89 101.15 L 161.99 100.85 L 161.79 100.35 L 161.29 99.85 L 160.69 99.45 L 160.09 99.15 L 159.29 99.25 L 158.59 99.55 L 157.89 99.95 L 156.69 101.35 L 156.09 101.75 L 154.89 102.25 L 153.79 102.45 L 152.79 102.55 L 150.79 102.45 L 150.39 102.55 L 150.19 102.85 L 150.09 103.55 L 149.49 104.75 L 149.19 105.15 L 148.29 105.95 L 147.89 106.05 L 147.09 105.95 L 146.19 105.65 L 145.49 104.55 L 143.89 100.95 L 144.29 100.25 L 144.39 99.75 L 144.29 98.95 L 143.99 98.45 L 143.19 97.65 L 141.69 95.35 L 141.29 94.15 L 141.19 92.95 L 141.29 91.65 L 141.69 90.95 L 142.29 90.35 L 142.79 89.45 L 142.89 88.25 L 142.59 86.95 L 142.19 85.95 L 141.69 84.25 L 141.19 83.55 L 140.39 83.05 L 139.29 82.95 L 138.49 82.65 L 137.99 81.95 L 137.69 81.05 L 137.49 80.05 L 137.49 77.55 L 138.09 75.05 L 139.39 72.85 L 141.19 71.45 L 142.19 71.95 L 143.09 72.15 L 144.99 71.95 L 145.89 71.65 L 147.09 70.55 L 147.89 70.35 L 148.69 70.15 L 150.19 69.65 L 152.09 69.25 L 153.19 68.45 L 153.99 68.25 L 154.39 68.05 L 156.19 66.65 L 156.69 66.15 L 157.39 65.05 L 157.79 64.65 L 159.29 63.95 L 162.79 62.85 L 164.39 61.75 L 164.69 62.35 L 164.69 62.85 L 163.49 66.65 L 163.79 67.45 L 164.29 68.05 L 164.89 68.45 L 165.59 69.05 L 166.39 70.65 L 166.79 71.15 L 165.79 68.45 L 165.09 67.85 L 164.79 67.45 L 164.79 67.15 L 165.09 66.55 L 165.19 66.25 L 165.09 64.75 L 165.19 63.65 L 165.79 62.75 L 166.79 62.15 L 169.39 62.95 L 172.19 61.35 L 176.19 57.65 L 177.49 57.25 L 181.69 57.65 L 182.19 57.45 L 183.59 56.95 L 184.09 56.85 L 185.79 56.85 L 186.49 56.75 L 187.19 56.35 L 188.59 57.15 L 190.29 56.95 L 191.99 56.35 L 193.49 55.95 L 194.59 55.45 L 199.09 49.45 L 199.99 48.95 L 201.39 49.45 L 202.59 50.45 L 203.29 51.65 L 203.69 53.15 L 203.89 54.85 L 204.99 54.15 L 205.59 53.35 L 205.89 52.15 L 206.09 49.55 L 206.39 48.85 L 206.99 48.35 L 207.59 47.45 L 207.79 47.95 L 208.09 48.15 L 208.59 48.15 L 209.19 47.85 L 209.79 47.35 L 209.79 46.95 L 209.79 46.45 L 209.99 45.85 L 210.99 44.75 L 211.99 44.55 L 214.49 45.45 L 214.09 44.55 L 212.99 44.25 L 211.79 44.15 L 210.79 43.75 L 210.39 42.95 L 210.59 42.15 L 211.09 41.45 L 213.29 39.25 L 213.69 38.45 L 213.69 37.55 L 213.39 36.75 L 213.59 36.05 L 216.99 38.45 L 218.29 40.15 L 220.09 41.65 L 220.69 42.65 L 221.19 43.95 L 222.09 45.15 L 223.29 46.05 L 224.69 46.45 L 225.59 46.35 L 226.49 46.05 L 226.99 46.25 L 227.09 47.35 L 227.39 47.95 L 228.59 49.35 L 228.89 50.25 L 229.79 49.75 L 230.69 49.65 L 233.99 50.45 L 234.39 50.75 Z"
    id="ECU1335" name="Esmeraldas" />
  <path
    d="M 291.69 82.15 L 291.49 82.45 L 289.39 84.05 L 288.39 84.25 L 287.19 83.85 L 286.89 83.75 L 285.29 83.75 L 284.69 83.65 L 283.79 83.35 L 283.29 83.25 L 282.69 83.25 L 282.29 83.75 L 282.19 84.35 L 282.39 85.05 L 283.09 85.55 L 283.49 86.15 L 283.59 86.65 L 283.39 87.05 L 282.99 87.45 L 280.79 89.05 L 280.29 89.55 L 276.19 94.75 L 275.69 95.65 L 275.39 96.35 L 275.29 97.35 L 275.29 97.85 L 275.39 98.65 L 275.19 99.35 L 273.89 100.95 L 272.39 100.15 L 271.39 98.85 L 270.69 98.35 L 267.89 96.85 L 265.49 95.15 L 262.79 93.55 L 260.69 93.05 L 259.69 92.95 L 258.49 92.65 L 257.69 92.25 L 257.29 91.85 L 255.09 91.35 L 254.39 90.45 L 254.09 89.45 L 253.99 88.35 L 254.09 86.65 L 253.99 86.15 L 252.79 82.65 L 250.49 79.75 L 248.89 77.05 L 247.49 75.35 L 245.59 73.75 L 242.89 71.95 L 241.89 71.05 L 241.39 70.65 L 240.69 70.55 L 238.49 70.35 L 237.29 69.95 L 236.49 69.55 L 236.19 69.45 L 235.29 68.75 L 234.19 67.65 L 233.29 67.05 L 232.59 67.15 L 231.69 66.15 L 231.19 65.15 L 230.99 64.05 L 231.29 60.65 L 231.69 59.55 L 233.09 57.25 L 233.49 55.95 L 233.39 54.05 L 233.29 52.95 L 233.29 52.15 L 233.39 51.75 L 234.39 50.75 L 235.09 51.35 L 240.69 57.55 L 242.09 58.65 L 243.19 59.15 L 246.69 60.15 L 247.99 60.75 L 255.69 66.65 L 258.19 67.85 L 262.39 67.95 L 266.49 69.55 L 267.09 69.55 L 267.39 69.35 L 267.69 69.45 L 268.29 70.05 L 268.49 70.65 L 268.49 71.25 L 268.59 71.95 L 269.19 72.45 L 270.59 73.05 L 271.89 73.25 L 273.09 73.35 L 274.29 73.05 L 278.99 71.25 L 280.49 71.25 L 282.29 72.65 L 282.59 76.95 L 283.89 78.85 L 287.79 81.55 L 289.99 82.35 L 291.69 82.15 Z"
    id="ECU1409" name="Carchi" />
  <path
    d="M 273.89 100.95 L 271.99 103.35 L 271.59 104.05 L 271.69 104.75 L 272.59 105.05 L 272.59 105.45 L 271.49 106.75 L 270.39 108.25 L 270.09 108.65 L 269.59 108.95 L 268.99 109.15 L 268.09 109.65 L 266.09 111.85 L 259.19 109.75 L 258.19 109.75 L 257.49 110.15 L 256.09 111.25 L 255.09 111.85 L 252.39 113.15 L 250.79 113.45 L 249.29 113.55 L 247.69 113.05 L 246.59 112.55 L 245.69 111.85 L 244.39 110.75 L 243.79 110.25 L 243.19 110.15 L 242.49 110.45 L 241.49 111.45 L 241.09 111.55 L 240.99 111.25 L 241.09 110.85 L 241.39 109.85 L 241.49 109.25 L 241.39 108.55 L 241.19 107.95 L 240.79 107.45 L 239.79 107.05 L 238.19 106.85 L 235.09 107.05 L 231.89 107.65 L 231.09 107.65 L 229.79 107.95 L 226.69 108.35 L 226.09 108.55 L 225.29 108.65 L 223.99 108.65 L 217.99 107.35 L 216.59 107.25 L 211.49 107.85 L 209.09 108.55 L 207.89 108.65 L 207.09 108.85 L 206.19 108.95 L 205.19 108.65 L 204.29 108.25 L 203.69 107.85 L 202.69 105.55 L 203.79 105.65 L 204.09 105.55 L 204.69 104.95 L 206.69 101.85 L 207.89 100.45 L 208.59 100.15 L 208.69 99.95 L 208.69 99.35 L 209.19 98.45 L 209.89 97.65 L 210.59 97.05 L 211.69 96.35 L 212.39 96.15 L 213.09 96.05 L 214.89 96.65 L 216.99 96.85 L 217.69 97.15 L 218.89 97.45 L 219.99 97.55 L 220.59 97.75 L 220.99 98.05 L 221.79 98.85 L 222.29 99.15 L 222.69 99.35 L 223.09 99.25 L 223.49 99.05 L 224.49 98.35 L 225.49 97.25 L 227.49 94.65 L 229.49 92.55 L 230.29 91.35 L 230.79 90.85 L 232.69 89.45 L 233.29 89.25 L 233.79 89.15 L 234.69 89.35 L 235.29 89.35 L 236.19 89.25 L 236.69 89.05 L 237.19 88.65 L 237.49 88.25 L 237.69 87.45 L 237.59 86.55 L 237.09 85.55 L 235.49 83.65 L 235.19 83.05 L 234.89 82.35 L 234.49 80.65 L 234.19 80.05 L 232.39 76.75 L 232.29 76.25 L 232.39 75.85 L 232.99 75.55 L 233.49 75.45 L 234.69 75.35 L 235.09 75.15 L 235.49 74.95 L 235.99 74.45 L 236.39 73.75 L 236.59 72.95 L 236.49 71.85 L 236.49 69.55 L 237.29 69.95 L 238.49 70.35 L 240.69 70.55 L 241.39 70.65 L 241.89 71.05 L 242.89 71.95 L 245.59 73.75 L 247.49 75.35 L 248.89 77.05 L 250.49 79.75 L 252.79 82.65 L 253.99 86.15 L 254.09 86.65 L 253.99 88.35 L 254.09 89.45 L 254.39 90.45 L 255.09 91.35 L 257.29 91.85 L 257.69 92.25 L 258.49 92.65 L 259.69 92.95 L 260.69 93.05 L 262.79 93.55 L 265.49 95.15 L 267.89 96.85 L 270.69 98.35 L 271.39 98.85 L 272.39 100.15 L 273.89 100.95 Z"
    id="ECU1410" name="Imbabura" />
  <path
    d="M 425.39 159.75 L 424.39 159.85 L 424.19 159.35 L 424.29 158.65 L 423.99 158.35 L 423.19 158.55 L 422.49 158.55 L 420.39 157.95 L 419.49 157.55 L 418.49 157.35 L 418.09 156.95 L 417.79 155.85 L 417.49 155.35 L 417.19 155.15 L 416.29 155.15 L 415.79 155.05 L 415.19 154.65 L 414.49 154.35 L 411.79 154.35 L 410.89 154.35 L 408.99 153.75 L 407.89 152.85 L 407.49 152.05 L 407.39 151.45 L 407.09 150.95 L 406.39 151.25 L 406.19 151.25 L 405.89 150.55 L 405.59 150.25 L 404.89 149.85 L 403.59 149.25 L 402.89 148.85 L 402.29 148.55 L 401.69 148.65 L 401.19 148.85 L 400.29 149.15 L 399.59 149.15 L 398.89 148.75 L 398.49 148.35 L 397.99 147.55 L 397.69 147.15 L 397.19 146.75 L 396.69 146.65 L 395.49 147.05 L 394.79 147.15 L 393.39 147.15 L 392.89 147.25 L 392.29 147.45 L 391.79 147.55 L 391.09 147.35 L 390.39 146.85 L 389.59 146.35 L 388.49 146.15 L 386.59 146.05 L 385.59 146.35 L 384.89 146.65 L 384.69 147.35 L 384.69 148.25 L 385.19 153.15 L 385.49 153.85 L 385.89 154.55 L 385.79 154.75 L 385.49 154.95 L 384.79 154.85 L 383.39 154.75 L 382.09 154.45 L 380.69 153.65 L 378.29 151.95 L 377.09 151.35 L 376.79 150.95 L 376.59 149.55 L 376.29 148.75 L 375.89 148.15 L 375.59 147.85 L 369.99 147.45 L 365.39 147.85 L 364.89 148.05 L 363.59 148.65 L 361.69 149.25 L 361.19 149.45 L 358.79 151.25 L 357.39 151.85 L 356.69 151.35 L 356.29 150.45 L 355.39 150.15 L 352.99 150.25 L 351.89 149.75 L 348.79 147.35 L 347.49 145.65 L 346.09 146.05 L 344.79 146.85 L 344.09 145.95 L 343.79 145.45 L 343.29 144.85 L 339.99 142.45 L 339.29 141.85 L 338.19 140.15 L 337.69 139.55 L 336.59 137.95 L 336.39 137.05 L 336.09 136.55 L 334.29 134.95 L 328.19 127.65 L 327.59 126.65 L 327.19 126.15 L 326.39 125.65 L 325.49 125.45 L 323.99 125.65 L 323.09 126.05 L 322.19 126.45 L 321.49 126.95 L 320.69 127.45 L 319.39 127.65 L 317.89 127.55 L 314.59 126.65 L 313.49 126.45 L 312.59 126.65 L 311.89 126.85 L 311.19 127.05 L 310.59 126.85 L 308.79 125.65 L 307.19 124.85 L 306.19 124.55 L 305.39 124.35 L 304.49 124.95 L 302.89 126.75 L 302.49 127.55 L 301.79 128.85 L 301.49 129.35 L 300.69 129.85 L 299.99 129.85 L 298.99 129.75 L 296.29 129.15 L 295.69 128.95 L 295.59 128.55 L 295.59 128.15 L 295.79 127.45 L 295.79 126.85 L 295.59 126.35 L 295.59 126.05 L 295.89 125.05 L 295.89 124.85 L 295.39 124.15 L 295.29 123.45 L 294.99 123.05 L 294.69 122.85 L 293.89 123.15 L 293.09 123.75 L 292.59 123.95 L 292.19 124.55 L 291.79 124.85 L 291.29 125.05 L 290.19 125.15 L 289.59 125.55 L 288.29 126.95 L 287.69 127.35 L 287.29 127.45 L 286.59 127.05 L 285.89 126.75 L 284.19 126.35 L 278.29 126.15 L 277.19 125.95 L 276.39 125.45 L 275.99 124.25 L 275.59 122.35 L 275.69 121.45 L 275.99 120.95 L 275.99 120.55 L 275.39 120.25 L 272.79 119.55 L 271.99 119.35 L 271.79 119.15 L 271.59 118.25 L 271.39 117.65 L 270.89 117.05 L 270.09 116.55 L 269.29 116.35 L 268.39 116.05 L 266.89 115.25 L 266.29 115.25 L 265.59 115.05 L 264.89 114.85 L 264.59 114.65 L 264.59 114.35 L 266.09 111.85 L 268.09 109.65 L 268.99 109.15 L 269.59 108.95 L 270.09 108.65 L 270.39 108.25 L 271.49 106.75 L 272.59 105.45 L 272.59 105.05 L 271.69 104.75 L 271.59 104.05 L 271.99 103.35 L 273.89 100.95 L 275.19 99.35 L 275.39 98.65 L 275.29 97.85 L 275.29 97.35 L 275.39 96.35 L 275.69 95.65 L 276.19 94.75 L 280.29 89.55 L 280.79 89.05 L 282.99 87.45 L 283.39 87.05 L 283.59 86.65 L 283.49 86.15 L 283.09 85.55 L 282.39 85.05 L 282.19 84.35 L 282.29 83.75 L 282.69 83.25 L 283.29 83.25 L 283.79 83.35 L 284.69 83.65 L 285.29 83.75 L 286.89 83.75 L 287.19 83.85 L 288.39 84.25 L 289.39 84.05 L 291.49 82.45 L 291.69 82.15 L 291.99 82.15 L 294.49 82.75 L 295.29 85.65 L 295.59 91.85 L 296.19 93.85 L 296.39 95.65 L 297.09 97.15 L 298.69 98.45 L 300.69 99.15 L 307.09 100.45 L 308.19 100.85 L 309.09 101.35 L 309.99 101.55 L 311.29 101.55 L 314.29 100.35 L 315.29 100.15 L 317.39 100.75 L 319.59 103.25 L 321.39 103.85 L 323.79 103.95 L 324.49 104.05 L 325.49 104.35 L 326.09 104.85 L 327.39 106.15 L 328.39 106.85 L 329.29 107.15 L 330.19 107.25 L 334.29 106.65 L 335.09 106.65 L 337.19 107.65 L 338.09 107.65 L 337.89 105.25 L 338.69 104.95 L 340.69 105.55 L 343.59 105.85 L 344.49 106.05 L 345.39 106.75 L 346.99 108.25 L 348.09 108.65 L 348.99 108.55 L 350.49 107.75 L 356.39 107.05 L 357.49 106.35 L 356.89 102.35 L 356.99 97.95 L 356.99 97.55 L 357.59 97.65 L 358.79 97.55 L 359.49 97.45 L 359.99 97.25 L 361.49 95.45 L 363.19 94.15 L 363.89 93.95 L 364.49 94.25 L 366.09 96.05 L 367.29 96.75 L 368.39 97.25 L 369.69 97.55 L 371.19 97.65 L 372.49 97.55 L 373.19 97.65 L 373.59 97.85 L 373.99 98.45 L 374.29 100.05 L 374.59 100.55 L 375.69 100.45 L 377.19 100.05 L 378.59 99.85 L 379.09 100.75 L 379.39 101.45 L 383.39 106.45 L 383.69 107.25 L 383.99 108.35 L 384.59 109.35 L 386.09 110.75 L 389.69 112.95 L 390.19 113.75 L 392.59 115.55 L 394.29 116.45 L 395.19 116.85 L 396.39 117.15 L 397.69 117.25 L 399.09 117.15 L 401.59 116.55 L 402.79 116.45 L 403.89 116.75 L 404.89 117.65 L 405.59 118.45 L 406.29 118.85 L 407.29 119.25 L 410.09 121.75 L 413.59 123.85 L 414.99 124.35 L 416.19 125.15 L 419.49 125.85 L 423.29 127.25 L 424.39 127.85 L 423.69 128.75 L 422.29 129.75 L 421.49 130.15 L 420.79 130.35 L 419.79 130.45 L 417.79 130.15 L 417.29 130.15 L 415.69 131.25 L 414.09 131.05 L 409.99 128.85 L 409.09 128.65 L 408.29 128.65 L 407.29 128.75 L 406.29 128.55 L 405.19 128.15 L 404.19 127.85 L 403.29 128.15 L 402.99 129.15 L 403.29 130.45 L 403.79 131.65 L 404.39 132.25 L 404.89 132.35 L 406.19 132.25 L 406.79 132.35 L 407.49 132.85 L 408.79 133.95 L 409.49 134.35 L 410.79 134.75 L 411.69 135.35 L 412.39 136.25 L 414.29 142.95 L 415.39 145.45 L 417.09 147.85 L 418.19 148.85 L 418.89 149.35 L 419.49 149.45 L 420.19 149.35 L 420.59 149.55 L 420.79 149.85 L 423.09 151.65 L 423.39 151.95 L 423.69 152.65 L 423.89 152.95 L 424.19 153.05 L 424.79 152.75 L 424.99 152.85 L 425.69 153.85 L 425.89 154.95 L 425.69 157.35 L 425.79 157.75 L 425.99 158.65 L 425.89 159.25 L 425.39 159.75 Z"
    id="ECU1411" name="Sucumbios" />
  <path
    d="M 113.19 231.15 L 113.79 233.75 L 115.49 236.55 L 118.59 238.35 L 123.29 239.55 L 126.79 241.65 L 128.89 243.65 L 131.19 247.25 L 131.09 252.45 L 130.09 258.55 L 127.49 262.55 L 124.59 264.25 L 119.49 265.45 L 115.89 268.15 L 111.59 272.25 L 109.79 270.05 L 104.89 265.45 L 102.99 264.75 L 101.19 263.95 L 99.29 264.05 L 96.09 262.95 L 94.99 262.45 L 92.49 260.25 L 91.19 259.75 L 90.29 259.75 L 89.59 259.65 L 89.09 259.05 L 88.79 257.05 L 88.29 256.15 L 87.39 254.75 L 86.49 253.95 L 84.29 252.15 L 83.79 251.15 L 83.69 250.55 L 83.89 250.35 L 84.39 250.45 L 84.89 251.15 L 86.39 251.55 L 87.09 251.55 L 87.49 251.75 L 87.79 252.75 L 88.49 253.55 L 89.99 253.55 L 92.09 252.75 L 95.19 250.35 L 97.49 249.15 L 99.59 246.75 L 100.09 243.25 L 99.19 241.45 L 98.79 239.55 L 98.59 239.05 L 98.79 238.45 L 99.49 238.35 L 100.29 237.85 L 100.49 236.45 L 100.29 234.95 L 98.69 228.55 L 97.39 224.95 L 96.89 224.05 L 96.29 223.35 L 95.59 222.25 L 95.29 221.35 L 96.89 221.05 L 97.99 221.15 L 98.39 221.15 L 99.29 220.85 L 103.49 221.05 L 104.69 220.85 L 106.79 220.15 L 107.79 220.15 L 109.59 220.35 L 110.39 220.85 L 110.69 221.35 L 110.59 222.25 L 110.69 222.65 L 111.49 223.35 L 111.69 223.85 L 111.79 224.35 L 111.59 226.15 L 111.49 226.45 L 110.79 227.55 L 110.39 228.65 L 110.39 229.15 L 110.49 229.75 L 110.99 230.35 L 111.99 230.85 L 113.19 231.15 Z"
    id="ECU5507" name="Santa Elena" />
  <path
    d="M 207.99 142.05 L 207.69 142.15 L 207.09 142.85 L 206.39 142.95 L 205.89 143.35 L 205.39 144.15 L 205.19 145.05 L 204.69 145.55 L 203.49 146.15 L 202.99 146.75 L 202.19 148.55 L 201.39 150.05 L 201.79 150.65 L 202.79 151.05 L 203.29 151.45 L 203.59 151.85 L 203.89 152.85 L 203.89 153.15 L 203.69 153.35 L 202.59 153.75 L 202.19 154.05 L 201.89 154.35 L 201.69 155.15 L 201.19 156.05 L 200.59 156.35 L 200.09 156.35 L 199.69 156.15 L 199.09 155.75 L 198.19 154.35 L 197.09 153.95 L 196.49 154.05 L 195.59 154.55 L 191.19 158.95 L 190.49 159.45 L 188.89 160.25 L 188.19 160.75 L 187.39 161.55 L 186.69 162.25 L 186.09 162.75 L 185.29 162.95 L 184.59 162.95 L 183.79 162.85 L 183.09 162.55 L 182.49 162.15 L 182.19 161.65 L 181.89 160.55 L 182.09 160.05 L 182.49 159.25 L 182.69 158.55 L 182.59 157.65 L 182.29 156.65 L 182.09 155.85 L 182.39 155.35 L 182.99 154.55 L 182.49 154.25 L 181.09 153.95 L 177.89 154.15 L 176.59 153.95 L 174.79 153.85 L 175.79 152.65 L 176.49 150.85 L 176.59 150.35 L 176.69 149.05 L 178.59 146.15 L 178.99 145.25 L 179.19 144.35 L 178.79 133.65 L 178.89 132.65 L 178.59 132.15 L 178.09 131.95 L 176.69 132.05 L 176.29 131.95 L 174.19 131.35 L 173.79 131.15 L 172.29 129.65 L 170.79 127.85 L 170.29 127.45 L 169.59 126.95 L 169.09 126.45 L 168.29 126.15 L 167.79 125.75 L 167.49 125.15 L 167.29 123.95 L 167.39 123.25 L 167.49 122.85 L 167.99 122.35 L 169.19 122.25 L 170.39 122.55 L 174.09 123.05 L 175.79 123.45 L 176.89 124.05 L 177.39 124.45 L 177.59 124.45 L 177.99 124.05 L 178.29 123.85 L 178.39 123.45 L 177.99 123.15 L 177.49 123.25 L 177.19 123.05 L 176.59 122.15 L 176.49 121.85 L 176.59 121.55 L 177.69 121.15 L 178.19 120.85 L 179.79 120.45 L 180.59 120.15 L 181.39 119.35 L 181.69 118.65 L 184.99 121.05 L 196.99 121.45 L 197.39 126.35 L 207.99 126.05 L 209.79 127.85 L 215.49 130.95 L 218.49 134.35 L 217.39 138.45 L 209.79 139.25 L 207.99 142.05 Z"
    id="ECU5508" name="Santo Domingo de los Tsáchilas" />
</svg>